<?xml version="1.0" encoding="utf-8"?>
<svg viewBox="0 0 479 78" version="1.1" xmlns="http://www.w3.org/2000/svg">
    <title>The letters B-U-T-T-E-N, written crudely.</title>
    <path d="M 0.66469174,23.559594 C 1.2021849,23.700477 1.6735785,23.4399 2.4696463,22.554929 c 0.8287602,-0.921716 1.7388625,-1.408313 3.9745371,-2.124976 1.5943252,-0.511329 4.1670156,-1.453259 5.7170276,-2.093302 1.550017,-0.639914 3.26926,-1.163674 3.820554,-1.163674 1.436694,0 4.452469,-0.680573 5.590643,-1.262295 0.537491,-0.273097 1.303056,-0.541115 1.705453,-0.594867 0.399487,-0.05385 1.192642,-0.291984 1.755581,-0.529502 0.559287,-0.23762 1.816605,-0.50699 2.785515,-0.597776 1.439631,-0.135017 1.966911,-0.376236 2.880672,-1.318957 1.149074,-1.185241 2.118747,-1.388175 4.054432,-0.847723 0.984195,0.274551 3.877934,-0.296349 4.461912,-0.879883 0.217968,-0.217968 0.631927,-0.305793 0.922456,-0.193976 0.319574,0.122001 0.435807,0.06049 0.305053,-0.158243 -0.377691,-0.613038 0.581058,-1.089223 2.51895,-1.2492273 1.020514,-0.084226 3.277251,-0.6261069 5.015381,-1.2056596 1.738147,-0.5788893 3.394193,-1.0524701 3.680371,-1.0524701 0.493896,0 3.093484,-0.7393274 6.802181,-1.9360541 0.937718,-0.3028824 1.935722,-0.7388934 2.216782,-0.9693924 0.739404,-0.6057649 2.729587,-1.1707185 3.962914,-1.1254151 0.588334,0.020161 1.425082,-0.2136283 1.866709,-0.522968 0.443079,-0.3094164 1.130927,-0.5621716 1.532584,-0.5621716 0.895579,0 6.21675,-1.30604195 6.975776,-1.7122164 0.757577,-0.40530664 3.092763,0.44088585 3.687636,1.3366952 0.261483,0.3944082 0.660971,0.7168925 0.892669,0.7168925 0.653698,0 1.446903,1.085446 1.71778,2.3559599 0.203421,0.9476467 0.03574,1.5746213 -0.899944,3.3965131 -0.631899,1.2288856 -1.339374,2.4436309 -1.573958,2.6993719 -0.232515,0.255665 -0.428531,0.737158 -0.428531,1.069826 0,0.332668 -0.297805,0.873349 -0.660972,1.2015 -0.363169,0.328303 -0.573785,0.812272 -0.472126,1.076078 0.166923,0.443796 -0.210567,0.621028 -1.109872,0.518604 -0.203418,-0.02016 -0.588333,0.372612 -0.852726,0.879322 -0.844024,1.603028 -4.902796,5.221227 -5.857937,5.221227 -0.276006,0 -0.869419,0.364624 -1.316839,0.810512 -0.45033,0.445965 -2.000346,1.529828 -3.450118,2.408921 -1.449789,0.87909 -2.725231,1.742206 -2.834181,1.91806 -0.108992,0.175854 -0.428534,0.319599 -0.719063,0.319599 -0.283281,0 -1.159232,0.503342 -1.940775,1.119723 -1.662599,1.309668 -4.146677,2.632116 -4.943475,2.632116 -0.788078,0 -4.15249,1.432559 -4.15249,1.768136 0,0.153143 0.501172,0.280371 1.108391,0.283996 1.451958,0.0068 7.104339,1.532865 7.389575,1.99389 0.123523,0.196783 0.682769,0.556377 1.24351,0.799484 1.591417,0.687133 4.884645,3.443874 4.905707,4.107749 0.01074,0.328302 0.239662,0.59706 0.51572,0.59706 0.660971,0 1.947309,1.402417 1.754125,1.907673 -0.08728,0.217966 0.02287,0.572355 0.239662,0.787514 0.247063,0.244001 0.355893,1.376997 0.297802,3.026011 -0.116132,3.179481 -0.283279,3.829049 -0.974036,3.829049 -0.41401,0 -0.443082,0.102352 -0.130683,0.47866 0.428534,0.516436 0.159783,2.249631 -0.348645,2.249631 -0.166924,0 -0.305051,0.212863 -0.305051,0.472126 0,0.26003 -0.421285,0.748797 -0.937719,1.086545 -0.515719,0.337746 -1.191189,0.930953 -1.501319,1.318242 -0.312325,0.387132 -1.199203,1.394861 -1.97638,2.239012 -0.777179,0.84415 -1.640803,1.956907 -1.918266,2.472805 -0.276006,0.515719 -0.646448,0.937998 -0.821486,0.937998 -0.174315,0 -0.573809,0.537466 -0.88251,1.193793 -0.312326,0.656606 -0.711815,1.193791 -0.882513,1.193791 -0.174314,0 -0.932639,0.629017 -1.68654,1.398792 -0.92899,0.9478 -1.577607,1.344811 -2.011245,1.231516 -0.348645,-0.0924 -0.957294,0.0536 -1.34448,0.326108 -0.384964,0.27085 -0.835294,0.412478 -0.995094,0.314445 -0.159783,-0.09852 -0.882512,0.122772 -1.606652,0.492467 -0.726363,0.368961 -1.443944,0.67113 -1.599404,0.67113 -0.152624,0 -0.610131,0.306531 -1.015437,0.682027 -0.399487,0.375547 -1.076437,0.682029 -1.49772,0.682029 -0.45033,0 -0.849792,0.265107 -0.971129,0.648617 -0.232515,0.72649 -0.811353,0.914007 -3.762442,1.215844 -1.125825,0.114593 -2.583595,0.366077 -3.240211,0.557832 -0.831644,0.243236 -1.969846,0.230985 -3.751547,-0.04032 C 31.987288,70.84594 30.145288,70.635231 29.301281,70.590208 27.37067,70.487838 26.333454,70.144241 25.037662,69.180667 24.47838,68.762294 23.436078,68.151295 22.728619,67.823424 22.024076,67.495852 21.161166,66.82406 20.816166,66.331308 19.727381,64.776284 18.0459,61.570215 18.0459,61.050154 c 0,-0.682027 1.941516,-2.26576 2.777527,-2.26576 0.846193,0 1.998177,0.597037 1.998177,1.035191 0,0.181724 0.232515,0.597801 0.522969,0.926029 0.290555,0.328304 0.91592,1.095681 1.394581,1.705376 0.581059,0.73971 1.163597,1.108518 1.75119,1.108518 0.48665,0 1.14979,0.244002 1.478834,0.541115 0.326849,0.297805 1.59578,0.665337 2.814569,0.816407 1.218804,0.151103 2.383856,0.378431 2.588682,0.505536 0.588332,0.364624 0.06763,0.862604 -0.937719,0.894713 l -0.918091,0.02679 0.995808,0.297805 c 0.762656,0.228175 1.08805,0.172024 1.389478,-0.240429 0.290555,-0.396577 1.149074,-0.570901 3.267809,-0.661686 2.970734,-0.127354 7.099978,-1.112525 9.183997,-2.19233 0.653698,-0.340658 1.976355,-0.926515 2.933691,-1.303057 2.619911,-1.030878 5.541254,-3.237739 7.185689,-5.42773 0.808392,-1.076869 1.471558,-2.125997 1.473729,-2.331406 0.002,-0.205461 0.312326,-0.651527 0.682768,-0.990806 0.37769,-0.339942 0.682768,-0.773326 0.682768,-0.964007 0,-0.190914 0.203418,-0.589073 0.450328,-0.885039 0.668221,-0.797444 2.617008,-5.688338 2.623548,-6.58486 0.0029,-0.426364 0.130682,-0.977866 0.290554,-1.225619 0.188871,-0.297063 -0.02679,-0.762298 -0.631901,-1.367553 -0.501146,-0.504081 -0.980546,-1.070489 -1.058263,-1.257879 -0.181726,-0.443796 -4.177916,-2.551927 -4.835978,-2.551927 -0.743053,0 -3.567061,-1.648944 -3.782059,-2.208359 -0.101582,-0.264394 -0.464853,-0.468477 -0.799715,-0.453954 -0.697291,0.03343 -2.715059,-0.230219 -5.731555,-0.739991 -1.1259,-0.190146 -2.996946,-0.346399 -4.159089,-0.347855 -1.773728,-0.0017 -2.195011,-0.119192 -2.626451,-0.735703 -0.457578,-0.650788 -0.457578,-0.871459 -0.0088,-1.943684 0.276006,-0.665337 0.537464,-1.240652 0.581058,-1.278146 0.04084,-0.04032 1.609588,-0.167174 3.484982,-0.288361 1.876124,-0.120463 3.460287,-0.360998 3.520573,-0.533125 0.225113,-0.636265 2.378036,-1.677327 6.000304,-2.898463 2.047565,-0.690018 3.922241,-1.454638 4.166289,-1.698919 0.247063,-0.244001 1.140348,-0.781109 1.990903,-1.19295 0.850558,-0.411839 1.546367,-0.880826 1.546367,-1.042363 0,-0.162073 0.767762,-0.645707 1.705454,-1.076078 0.937718,-0.430728 1.705428,-0.898412 1.705428,-1.040194 0,-0.141653 0.305051,-0.257859 0.682768,-0.257859 0.37769,0 0.682768,-0.191678 0.682768,-0.426364 0.0061,-0.719802 3.69199,-4.348746 4.41688,-4.348746 0.742314,0 4.784405,-4.572969 5.252896,-5.943282 0.89775,-2.6255763 1.283479,-4.7238295 0.93264,-5.074578 C 75.530592,4.9448058 74.102753,4.7777317 72.54402,4.7574153 70.985299,4.7372528 69.613234,4.5876875 69.494839,4.4240328 69.378707,4.2611952 68.97912,4.4173215 68.613068,4.7654041 67.455264,5.8729273 66.52339,6.2552887 64.981365,6.2552887 c -1.385852,0 -2.51895,0.3326681 -5.162829,1.5158164 -2.144884,0.9598467 -4.812735,1.8950128 -5.406882,1.8950128 -0.341371,0 -1.71852,0.3711571 -3.062981,0.8252631 -1.344428,0.453953 -3.100023,0.928402 -3.901178,1.054435 -0.801143,0.126339 -1.672758,0.44525 -1.937151,0.709644 -0.261484,0.264394 -0.719062,0.48083 -1.016151,0.48083 -0.334147,0 -0.537466,0.300713 -0.537466,0.81097 0,0.445965 -0.203418,0.979678 -0.450328,1.185905 -0.682768,0.566536 -2.215354,3.822006 -2.400548,5.099495 -0.08728,0.620289 -0.406762,1.497339 -0.70454,1.949199 -0.297829,0.451785 -0.537465,1.192082 -0.537465,1.644658 0,0.452499 -0.232515,1.01398 -0.508446,1.247567 -0.28328,0.233791 -0.508445,0.719088 -0.508445,1.078556 0,0.56508 -0.530242,1.744298 -1.669108,3.696562 -0.653697,1.11712 -1.013981,2.29307 -1.204281,3.897401 -0.108991,0.924267 -0.406762,1.921888 -0.660971,2.217012 -0.668222,0.779935 -1.491188,2.578802 -1.765,3.858614 -0.130682,0.611584 -0.363167,1.272122 -0.522967,1.467934 -0.377716,0.469217 -2.59016,7.147852 -3.445067,10.388066 -0.370467,1.406935 -0.750301,3.699906 -0.844021,5.095428 -0.123524,1.831689 -0.326901,2.658699 -0.74308,2.973643 -0.789557,0.599946 -1.111302,0.551249 -2.187763,-0.330523 -1.261658,-1.033072 -1.820229,-3.794114 -1.136722,-5.617665 0.595607,-1.596419 1.008903,-3.222484 0.913728,-3.621901 -0.04084,-0.168445 0.03572,-0.552753 0.166923,-0.852727 0.130682,-0.299971 0.25421,-0.666789 0.276008,-0.814288 0.01664,-0.147523 0.239661,-0.396578 0.493896,-0.554922 0.290556,-0.179428 0.37769,-0.554924 0.232515,-1.007219 -0.138074,-0.437261 -0.01917,-1.020949 0.305053,-1.482763 0.290554,-0.419089 0.537465,-0.996116 0.537465,-1.282637 0.0011,-0.286905 0.232515,-0.960587 0.508445,-1.497925 0.283256,-0.536777 0.508446,-1.205736 0.508446,-1.485291 0,-0.27963 0.399487,-1.298129 0.888305,-2.263362 0.48665,-0.965155 1.170132,-2.599073 1.513698,-3.630841 1.140346,-3.416997 1.944426,-5.250063 2.654771,-6.047077 0.384965,-0.432898 0.804794,-1.475413 0.931185,-2.316017 0.123523,-0.840526 0.370468,-1.528221 0.537465,-1.528221 0.166924,0 0.08728,-0.34502 -0.18887,-0.767452 -0.457605,-0.697291 -0.41401,-0.990808 0.486648,-3.218273 0.544766,-1.348027 1.454868,-3.0977 2.027962,-3.888393 1.089505,-1.504101 1.406935,-3.381551 0.573811,-3.381551 -0.261485,0 -0.646448,0.212862 -0.862885,0.473581 -0.217711,0.260769 -1.061913,0.642084 -1.879061,0.848004 -0.817121,0.205461 -1.571074,0.594152 -1.674213,0.863396 -0.116132,0.307961 -0.920999,0.568731 -2.170305,0.703824 -1.090243,0.118427 -2.462314,0.425623 -3.048451,0.683483 -0.719063,0.315236 -1.17886,0.355894 -1.409845,0.124809 -0.232515,-0.230219 -0.610129,-0.06713 -1.15127,0.50625 -0.995808,1.048029 -5.172272,2.379645 -5.726473,1.825666 -0.44308,-0.440886 -2.484824,0.204184 -3.739201,1.181464 -0.450329,0.348645 -1.203541,0.634096 -1.681461,0.634096 -1.837637,0 -6.9743244,2.250192 -9.9275551,4.348747 -1.0931284,0.77659 -1.9429706,1.108543 -2.8399924,1.108543 -0.7045494,0 -1.29288476,-0.115363 -1.30741246,-0.255665 C 0.60197894,26.663567 0.55477244,26.165275 0.50837144,25.695907 0.46498984,25.226691 0.31950825,24.51059 0.1814998,24.104059 -0.02914226,23.469963 0.0362479,23.392244 0.66088464,23.555669 Z M 39.943898,18.873025 c 0.138074,0.0029 0.159783,-0.215671 0.05743,-0.48448 -0.101582,-0.269472 -0.421284,-0.401656 -0.69729,-0.293438 -0.41401,0.159783 -0.428533,0.250636 -0.05743,0.484479 0.247063,0.158243 0.56656,0.290529 0.697289,0.293439 z m 1.290727,-3.163141 0.740171,-0.518603 -0.753953,-0.239662 c -0.48665,-0.153904 -0.855637,-0.07478 -1.038687,0.220775 -0.464853,0.74632 0.239661,1.105353 1.052469,0.53749 z m 5.931298,16.129388 c 0.261485,0 0.566562,-0.230219 0.66822,-0.511331 0.130682,-0.347929 -0.0179,-0.511354 -0.472125,-0.511354 -0.370469,0 -0.668221,0.230219 -0.668221,0.511354 0,0.281087 0.210566,0.511331 0.472126,0.511331 z m 1.912446,1.193817 c 0.18887,0.116132 0.34137,0.04696 0.34137,-0.150333 0,-0.199081 -0.152624,-0.360998 -0.34137,-0.360998 -0.188872,0 -0.341373,0.06763 -0.341373,0.150333 0,0.0827 0.152624,0.244765 0.341373,0.360998 z M 77.046751,9.1575775 c 0.18887,-0.1161305 0.34137,-0.3551792 0.34137,-0.5316715 0,-0.1766198 -0.152624,-0.3210548 -0.34137,-0.3210548 -0.188871,0 -0.341371,0.238896 -0.341371,0.531697 0,0.2927243 0.152624,0.4372614 0.341371,0.3210293 z M 115.61814,39.495108 c 0.10899,-0.06763 0.21797,-0.674039 0.24707,-1.346343 0.0254,-0.672583 0.28328,-1.457343 0.56656,-1.744171 0.28328,-0.286906 0.53024,-0.626107 0.54474,-0.752854 0.23251,-2.239524 0.4576,-3.188709 1.01398,-4.346787 0.37044,-0.762731 0.66822,-1.54384 0.66822,-1.735953 0,-0.392953 1.4701,-1.140779 2.24149,-1.140779 1.14979,0 1.42217,3.471548 0.37044,4.742063 -0.21771,0.262938 -0.42854,0.800428 -0.46485,1.193816 -0.0365,0.393669 -0.31958,2.173292 -0.6392,3.955433 -0.87815,4.993666 -0.53747,12.497784 0.70454,15.588845 0.42128,1.039019 0.94496,1.520384 2.6722,2.438629 2.06717,1.099024 3.24674,2.257262 2.77826,2.726245 -0.12354,0.122003 -0.91156,0.223073 -1.75265,0.223073 -1.10331,0 -1.6234,-0.166154 -1.86454,-0.597037 -0.21797,-0.390758 -0.74525,-0.597035 -1.52459,-0.597035 -0.95296,0 -1.45995,-0.283256 -2.54146,-1.419851 -0.74306,-0.780955 -1.35028,-1.625106 -1.35028,-1.87592 0,-0.251404 -0.11613,-0.45615 -0.25421,-0.45615 -0.70454,0 -1.16942,-2.344908 -1.25801,-6.394123 -0.0526,-2.392433 -0.13807,-4.426543 -0.18172,-4.520386 -0.18887,-0.361714 -0.16692,-3.823458 0.0229,-3.940618 z m 17.73123,17.691914 c 0.60288,-0.528047 2.08751,-1.920153 3.30267,-3.092614 1.21518,-1.172455 2.42163,-2.131739 2.68093,-2.131739 0.75102,0 0.54474,1.017681 -0.26149,1.317807 -0.6319,0.233791 -0.65369,0.304338 -0.16692,0.490274 0.6101,0.235323 0.78953,1.262013 0.21771,1.262013 -0.18887,0 -0.50844,0.350815 -0.70454,0.779067 -0.40671,0.899869 -3.08691,2.703513 -4.47277,3.013877 -1.57834,0.353009 -1.88559,-0.499717 -0.58833,-1.638327 z m 6.79855,-7.87596 c 0.37769,-0.614495 0.68277,-1.69282 0.68277,-2.396924 0,-0.703826 0.26148,-1.652851 0.58106,-2.108361 0.38496,-0.551299 0.61013,-1.628756 0.66097,-3.223573 0.0439,-1.327457 0.23966,-2.449733 0.44308,-2.517139 0.20342,-0.06713 0.27601,-0.261483 0.17433,-0.432183 -0.10899,-0.171505 -0.18887,-1.117196 -0.18887,-2.102617 6.6e-4,-0.985344 -0.15978,-2.308742 -0.36316,-2.940663 -0.28329,-0.902829 -0.26149,-1.212041 0.10158,-1.443101 0.38496,-0.244001 0.36316,-0.474295 -0.13068,-1.347721 -0.56657,-1.002063 -0.56657,-1.094226 0,-1.881945 1.14323,-1.592513 3.20461,-1.426104 4.37038,0.353009 0.43581,0.670416 0.61013,1.941083 0.72637,5.498546 0.0873,2.544602 0.0429,4.883553 -0.0944,5.197622 -0.13808,0.314495 -0.30506,1.260636 -0.37769,2.103409 -0.0873,1.0442 -0.43581,1.920229 -1.10549,2.750146 -0.53746,0.670416 -1.2297,1.957571 -1.53695,2.86171 -0.70453,2.072833 -2.51458,4.623086 -3.28233,4.623086 -0.3196,0 -0.68277,-0.268758 -0.79461,-0.597062 -0.11613,-0.328302 -0.28328,-0.750378 -0.37769,-0.937922 -0.0944,-0.187338 0.13807,-0.843639 0.50845,-1.457853 z m 46.5979,-22.249245 c 0.53745,-0.197549 1.15702,-0.420544 1.37275,-0.495353 0.45032,-0.156203 2.69327,0.96531 3.70143,1.850502 1.81875,1.597158 9.41635,1.875641 10.49003,0.384963 0.23251,-0.323939 0.93842,-0.886211 1.566,-1.248716 l 1.1418,-0.659517 1.14253,1.315255 c 1.12292,1.291953 1.19048,1.317145 3.80386,1.418471 1.64588,0.06713 4.0479,0.495353 6.2952,1.13172 1.99889,0.565082 4.33916,1.134324 5.20132,1.263623 0.86216,0.129411 1.56746,0.371156 1.56746,0.536776 0,0.166405 0.28327,0.302168 0.6319,0.302168 0.34864,0 0.8883,0.286191 1.20499,0.635551 0.50114,0.554922 0.52296,0.833838 0.15982,2.196899 l -0.41397,1.560915 -2.17829,0.233792 c -1.38296,0.148292 -2.48555,0.0929 -3.02014,-0.150334 -0.46485,-0.210566 -1.1367,-0.38351 -1.49626,-0.38351 -0.36316,0 -1.15852,-0.437977 -1.77445,-0.97322 -1.89576,-1.646598 -2.41729,-1.809232 -4.00432,-1.249152 -0.77572,0.273837 -2.20882,0.599232 -3.18574,0.724167 -0.97691,0.124812 -2.1732,0.427818 -2.65985,0.673324 -0.77284,0.390045 -2.05482,0.705995 -3.23003,0.797086 -0.58108,0.04696 -1.45487,2.196083 -1.87179,4.593163 -0.21772,1.239147 -0.58834,2.284853 -0.84692,2.384368 -0.2542,0.09725 -0.55929,0.76092 -0.67549,1.474238 -0.11615,0.713269 -0.34137,1.603898 -0.50117,1.979138 -0.92173,2.198916 -1.86958,4.158881 -2.2277,4.604563 -0.22512,0.281086 -0.60289,1.509257 -0.83021,2.728646 -0.23254,1.21939 -0.61014,2.447255 -0.84258,2.728645 -0.23252,0.281087 -0.69005,1.236314 -1.0176,2.122015 -0.53748,1.452749 -2.19211,3.335286 -2.93443,3.335286 -0.15982,0 -0.53021,-0.241193 -0.82656,-0.536036 -0.62465,-0.622456 -0.73069,-2.874783 -0.13816,-2.874783 0.21771,0 0.30505,-0.09163 0.19627,-0.203419 -0.11615,-0.111282 0.0673,-0.687133 0.39947,-1.279012 0.33414,-0.591244 0.70455,-1.612984 0.82952,-2.26959 0.12349,-0.656607 0.45032,-1.654253 0.71906,-2.217012 0.26872,-0.562911 0.58105,-1.445347 0.69004,-1.961195 0.13065,-0.642083 0.40676,-0.937923 0.87086,-0.937923 0.76341,0 0.86655,-0.355178 0.27602,-0.947008 -0.30506,-0.307247 -0.25422,-0.562912 0.22511,-1.093587 0.34136,-0.380601 0.54474,-0.774065 0.44309,-0.87409 -0.21772,-0.218733 1.48244,-5.70766 2.21605,-7.147195 0.28329,-0.562912 0.70454,-1.483682 0.92535,-2.046466 0.22511,-0.562912 0.69728,-1.590828 1.05466,-2.284622 1.39384,-2.700635 0.36316,-3.665578 -3.24093,-3.030905 -1.43017,0.25217 -2.68674,0.247576 -4.2767,-0.01342 -1.52821,-0.252678 -2.64533,-0.262938 -3.47989,-0.03343 -1.81876,0.501912 -2.08315,0.156203 -2.26328,-2.953884 l -0.15982,-2.752396 z m 7.63232,5.070585 c 0,0.213629 0.18886,0.400201 0.42852,0.41401 0.23251,0.01342 0.7721,0.09009 1.19335,0.168445 0.42129,0.07835 0.76776,-0.0068 0.76776,-0.196017 0,-0.186574 -0.44307,-0.339203 -0.98345,-0.339203 -0.69729,0 -1.03577,-0.199078 -1.16214,-0.682027 -0.10166,-0.376976 -0.45761,-0.677689 -0.80697,-0.67113 -0.59561,0.01342 -0.59561,0.03343 -0.0324,0.464138 0.32685,0.249105 0.5956,0.627561 0.5956,0.841904 z m 7.16243,3.799561 c 0.18887,0 0.34137,-0.153913 0.34137,-0.341371 0,-0.18734 -0.15266,-0.341372 -0.34137,-0.341372 -0.18886,0 -0.34136,0.153912 -0.34136,0.341372 0,0.187338 0.15266,0.341371 0.34136,0.341371 z m 36.13408,2.917495 c 0.71184,-0.647162 0.74604,-0.647162 2.33383,0.01324 1.34379,0.559287 1.97421,0.623938 3.8256,0.39441 1.2195,-0.151103 2.60174,-0.554924 3.07168,-0.896014 0.47219,-0.341372 1.62148,-0.70237 2.5582,-0.801375 0.93695,-0.09954 1.9806,-0.296348 2.3198,-0.436521 0.50841,-0.209801 0.59571,-0.110262 0.50841,0.555663 -0.0612,0.446706 0.046,0.847929 0.23227,0.89239 0.18888,0.04696 0.34864,-0.201889 0.35579,-0.546935 0.0143,-0.826208 0.89841,-1.682635 1.90812,-1.8505 0.44307,-0.07402 1.24142,-0.312326 1.76925,-0.528788 0.53011,-0.2172 1.16002,-0.394407 1.40326,-0.394407 0.24758,0 0.83384,-0.306508 1.31111,-0.682029 0.47933,-0.375521 1.10311,-0.682027 1.39255,-0.682027 0.29045,0 1.23914,-0.379147 2.11127,-0.843566 0.87238,-0.464137 2.14701,-0.943153 2.83197,-1.064821 0.683,-0.121233 1.92698,-0.664597 2.76012,-1.207319 0.83307,-0.54257 2.13755,-1.151833 2.89881,-1.354485 0.7611,-0.202654 1.61458,-0.557832 1.89661,-0.789761 0.89842,-0.739635 3.09203,-1.902797 3.58883,-1.902797 0.61026,0 1.18631,1.062704 1.18631,2.182786 0,0.821996 -1.89304,3.200694 -2.25675,2.836434 -0.0918,-0.09163 -1.41857,0.361713 -2.94891,1.007652 -1.82848,0.771001 -3.06445,1.102954 -3.60338,0.967554 -0.52296,-0.130682 -1.04286,-0.005 -1.42954,0.34428 -0.39944,0.363169 -0.68299,0.427079 -0.83231,0.187341 -0.1251,-0.199847 -0.37749,-0.363169 -0.56661,-0.363169 -0.18888,0 -0.25523,0.140132 -0.1455,0.312326 0.1072,0.172274 -0.38514,0.665336 -1.0878,1.097646 -0.70444,0.432182 -1.57834,1.059157 -1.94231,1.393485 -0.36319,0.334122 -0.77156,0.607959 -0.90556,0.607959 -0.13011,0 -0.63909,0.670416 -1.1174,1.489808 -0.73914,1.262297 -1.00535,1.464591 -1.73735,1.324547 -0.56661,-0.108991 -0.86447,-0.390044 -0.86447,-0.820618 0,-0.506252 -0.20418,-0.633357 -0.90198,-0.557093 -0.56661,0.06049 -0.96809,-0.09367 -1.0786,-0.413296 -0.1532,-0.439431 -0.0918,-0.445249 0.39203,-0.04032 0.48647,0.403111 0.56661,0.390784 0.56661,-0.08499 0,-0.304339 -0.1455,-0.553469 -0.32671,-0.553469 -0.70443,0 -2.06276,0.816841 -2.06276,1.241978 0,0.247575 -0.42138,0.539661 -0.93772,0.650074 -0.51582,0.109743 -1.34507,0.419828 -1.84353,0.688561 -0.50128,0.269474 -1.18912,0.490274 -1.53496,0.491729 -0.34865,0.0011 -1.06917,0.231749 -1.60643,0.511329 -0.53751,0.27963 -1.354,0.509899 -1.81443,0.509899 -0.45762,0 -1.47881,0.438717 -2.26339,0.974014 -0.82873,0.565821 -2.13985,1.075772 -3.13124,1.21699 -3.10576,0.442341 -3.3825,0.418375 -3.52197,-0.315234 -0.0714,-0.375521 -0.34864,-0.931746 -0.62454,-1.236747 -0.26876,-0.305077 -0.57375,-1.074267 -0.6756,-1.709383 -0.14551,-0.897315 -0.0281,-1.301015 0.53753,-1.810685 z m 21.6629,-0.66605 c 0.47931,-0.119962 0.8688,-0.399487 0.8688,-0.621028 0,-0.306506 -0.0995,-0.305052 -0.40685,0.0064 -0.22715,0.225113 -0.71183,0.409645 -1.08012,0.409645 -0.37061,0 -0.57378,0.09519 -0.45764,0.211331 0.1174,0.116132 0.6026,0.113322 1.08014,-0.0064 z m 2.55672,-1.409385 c 0.1761,0.110262 0.49361,-0.122772 0.70443,-0.517889 0.35579,-0.658802 0.32669,-0.686392 -0.32669,-0.338487 -0.79071,0.423454 -0.85476,0.565107 -0.38515,0.855916 z M 250.56508,58.45711 c 0.33435,-1.794504 2.79569,-7.517694 3.23078,-7.517694 0.13781,0 0.16089,-0.226645 0.0612,-0.50191 -0.26876,-0.694381 0.59571,-2.53013 1.09902,-2.33743 0.24757,0.09367 0.41399,-0.159783 0.41399,-0.633357 0.007,-0.884681 0.63195,-3.925217 0.96578,-4.713009 0.21185,-0.493182 0.27592,-0.848362 0.39944,-2.131739 0.0741,-0.733611 1.27411,-0.794456 1.96859,-0.100311 0.27592,0.273097 0.71926,0.412555 0.98495,0.310156 0.97984,-0.376235 0.97984,1.498232 7.9e-4,4.412304 -0.51582,1.537664 -1.0495,2.949305 -1.18478,3.136921 -0.13781,0.18734 -0.51557,1.18524 -0.85119,2.217012 -0.61001,1.891746 -1.13452,3.366372 -2.02782,5.713035 -0.26875,0.703085 -0.56661,2.427935 -0.66819,3.832097 -0.21185,2.978434 -0.6682,3.54665 -2.57922,3.203306 -0.66819,-0.119694 -1.40173,-0.369701 -1.63653,-0.555637 -0.41399,-0.329018 -0.50841,-2.575387 -0.17611,-4.333783 z m 68.86183,-5.539295 c 0.30499,-0.305791 0.60285,-0.913878 0.65339,-1.352084 0.1455,-1.135548 1.46145,-5.092812 1.85579,-5.567549 0.1812,-0.219243 0.72715,-1.461554 1.21081,-2.759949 0.48647,-1.29841 1.33052,-3.236865 1.88283,-4.307856 0.55206,-1.070974 1.00306,-2.154913 1.00306,-2.408767 0,-0.253443 0.305,-1.096932 0.683,-1.873445 0.37774,-0.77654 0.68299,-1.553413 0.68299,-1.726434 0,-0.438716 1.69193,-3.42121 2.07376,-3.657705 0.1761,-0.106683 0.3124,-0.586879 0.3124,-1.067146 0,-0.480116 0.52296,-1.737408 1.15621,-2.793725 0.63909,-1.056248 1.50585,-2.764668 1.93285,-3.796436 0.42854,-1.031772 0.96886,-2.106166 1.20342,-2.387557 0.23226,-0.281087 0.95073,-1.662729 1.59111,-3.069734 0.63909,-1.406935 1.40989,-2.759661 1.70902,-3.005964 0.67533,-0.559287 3.6571,-0.832104 4.34421,-0.397318 0.28331,0.177896 0.39203,0.325394 0.24757,0.329018 -0.1455,0.0029 -0.0206,0.374781 0.27591,0.825417 0.67559,1.034885 2.23123,1.495168 5.61752,1.664999 0.84405,0.04033 1.70113,0.184532 1.90429,0.315235 0.20419,0.131445 2.64606,0.32468 5.42865,0.429988 2.909,0.109748 5.25219,0.350815 5.51368,0.567991 0.66106,0.546194 0.55921,1.896033 -0.19652,2.650637 -0.67536,0.675493 -2.3489,0.709644 -4.61811,0.09367 -0.56661,-0.153895 -1.56967,-0.122003 -2.29605,0.07121 -1.1271,0.300715 -1.42496,0.244002 -2.35706,-0.443795 -0.5883,-0.433611 -1.70188,-0.868933 -2.47906,-0.967478 -0.77717,-0.09877 -1.61102,-0.336291 -1.85349,-0.528046 -0.30499,-0.241194 -0.56661,-0.226645 -0.83536,0.04696 -0.55207,0.554924 -3.02666,0.472126 -3.81984,-0.127873 -0.3632,-0.275292 -0.99591,-0.50117 -1.40325,-0.50117 -0.82159,0 -2.53931,1.205225 -2.53931,1.781435 0,0.510615 -1.72511,3.988773 -2.08982,4.214229 -0.16841,0.101063 -0.29786,0.53966 -0.29786,0.974957 0,0.908878 -0.86114,3.121376 -1.32719,3.409297 -0.17611,0.106683 -0.23993,0.48374 -0.1455,0.83754 0.0918,0.353725 10e-4,0.746475 -0.20419,0.872481 -0.59571,0.368248 -0.42854,1.694912 0.26901,2.130005 0.34865,0.219242 1.19628,0.504081 1.87621,0.631926 0.683,0.127873 1.23556,0.332668 1.23556,0.455408 0,0.122772 1.34328,0.216436 2.98456,0.207758 1.64163,-0.0068 3.34843,0.107452 3.79295,0.257861 0.48673,0.164883 0.98494,0.127872 1.25369,-0.09521 0.24759,-0.202653 1.40531,-0.445251 2.57995,-0.537491 1.17432,-0.0929 2.23787,-0.232515 2.36293,-0.309416 0.1251,-0.07708 0.47217,0.04696 0.77411,0.274551 0.45764,0.350101 0.49388,0.670416 0.19654,2.035569 -0.3706,1.691875 -0.79607,1.95392 -1.97931,1.21495 -0.50843,-0.31886 -1.04748,-0.294178 -2.51608,0.114862 -1.61305,0.448873 -1.9908,0.454693 -2.78046,0.04032 -0.71183,-0.372611 -1.02117,-0.388587 -1.40248,-0.07248 -0.53726,0.445965 -3.01289,0.281827 -5.60445,-0.370442 -2.68094,-0.675493 -4.12854,-0.76832 -4.96672,-0.319599 -0.83231,0.445251 -2.87777,4.040926 -2.87777,5.058312 0,0.317405 -0.22716,0.898335 -0.50127,1.291289 -0.27592,0.392953 -0.66105,1.463136 -0.8586,2.378267 -0.19652,0.915054 -0.49388,1.970715 -0.66105,2.34593 -0.16841,0.375521 -0.61741,1.372861 -0.99795,2.217011 -0.83844,1.855298 -0.96657,2.809487 -0.6174,4.613645 0.57375,2.978287 4.11467,3.915412 13.70196,3.623932 0.75038,-0.02021 2.20877,-0.02021 3.24018,0.005 1.43312,0.03343 8.36122,-0.420544 11.42617,-0.752191 1.03497,-0.111784 7.46633,0.692212 7.74216,0.967912 0.42853,0.430729 0.9469,2.76213 0.7343,3.316619 -0.25523,0.662427 -1.20291,0.789225 -3.05137,0.406762 -2.6962,-0.557093 -11.542,-0.780803 -17.53388,-0.443082 -5.12723,0.288361 -4.82288,0.288361 -10.23229,0.01342 -4.24333,-0.214905 -5.16362,-0.364624 -6.47757,-1.056222 -0.84251,-0.443082 -1.77155,-0.806097 -2.06353,-0.806097 -0.84482,0 -3.25108,-1.708642 -3.86195,-2.742297 -0.70444,-1.189095 -0.70444,-1.741542 -0.002,-2.442024 z m 9.16539,-14.939393 c 0.28331,0 0.50841,-0.153895 0.50841,-0.341371 0,-0.18734 -0.23224,-0.341372 -0.50841,-0.341372 -0.28331,0 -0.50841,0.153912 -0.50841,0.341372 0,0.18734 0.23224,0.341371 0.50841,0.341371 z m 70.12264,21.778813 c 0.18888,-0.496066 0.63911,-0.978963 0.99361,-1.072531 0.35581,-0.09315 0.75958,-0.607959 0.89434,-1.143918 0.1378,-0.536036 0.71898,-1.672325 1.29403,-2.525715 1.24908,-1.845038 1.59952,-2.395266 2.81457,-4.417095 0.50843,-0.844151 1.26672,-1.956191 1.68733,-2.471017 0.4214,-0.514979 0.87315,-1.282281 1.00612,-1.705377 0.13011,-0.422738 0.53037,-1.135267 0.87596,-1.582686 0.34865,-0.44742 0.6322,-1.065386 0.6322,-1.373449 0,-0.30796 0.58831,-1.344734 1.31035,-2.303739 1.58065,-2.103562 2.78261,-4.344754 2.78261,-5.187747 0,-0.340656 0.29045,-0.885039 0.6534,-1.210585 0.39203,-0.357349 0.74833,-1.289912 0.89203,-2.355093 0.13011,-0.969877 0.33409,-1.916809 0.44282,-2.10443 0.1174,-0.187338 0.21184,-1.18524 0.2195,-2.217012 l 0.0143,-1.87592 1.81801,-0.103873 c 2.15363,-0.123524 2.64896,0.205461 3.16902,2.105656 0.21184,0.775008 0.68299,2.253331 1.05154,3.285094 0.3632,1.031772 0.7458,2.182938 0.84405,2.5581 0.0995,0.375521 0.47219,1.332765 0.82567,2.127962 0.35581,0.795274 0.6465,1.603105 0.6465,1.795294 0,0.191678 0.13011,0.615948 0.29786,0.9417 0.43593,0.856503 0.98774,2.771352 1.25931,4.344101 0.13011,0.750378 0.34865,1.517832 0.48672,1.705376 0.1378,0.18734 0.3632,0.724881 0.49388,1.193817 0.13011,0.469218 0.51582,1.620105 0.85783,2.558101 0.34124,0.937999 0.878,2.549527 1.19473,3.581295 0.3198,1.031771 0.85044,2.413132 1.18556,3.069733 0.33435,0.656608 0.69728,1.674953 0.80831,2.262902 0.1072,0.588334 0.55206,1.600043 0.98264,2.248764 0.42854,0.648618 1.16743,1.813312 1.63654,2.587809 0.48672,0.799127 1.36932,1.655095 2.04592,1.978678 0.6534,0.313781 1.31674,0.778428 1.4663,1.032765 0.61741,1.049408 1.84405,0.508446 3.00631,-1.328196 1.70825,-2.699807 3.8053,-5.030561 4.52584,-5.030782 1.08652,-2.7e-4 1.99233,-1.360508 1.75394,-2.632913 -0.1761,-0.933634 0.046,-1.505045 1.40021,-3.587686 2.23327,-3.439951 5.10472,-7.300155 6.7862,-9.125064 0.77948,-0.845835 1.71031,-2.070509 2.06865,-2.721456 0.89049,-1.619082 1.06841,-1.842792 3.20974,-4.047462 1.03164,-1.062423 2.02933,-2.180104 2.21693,-2.483804 0.18886,-0.303623 1.26237,-1.8895 2.38743,-3.524059 1.12582,-1.6345 2.53777,-3.688286 3.13781,-4.564037 0.60285,-0.875672 1.09902,-1.864079 1.1082,-2.196312 0.007,-0.332669 0.39205,-0.775443 0.85273,-0.984631 0.50127,-0.228685 1.32567,-1.314235 2.0656,-2.722687 1.21234,-2.306727 1.28789,-3.021652 0.31979,-3.021652 -0.269,0 -0.49413,-0.247063 -0.49413,-0.549843 0,-0.432897 0.23227,-0.508445 1.10823,-0.353724 0.61024,0.107452 2.1521,0.371897 3.42761,0.587618 2.53649,0.428532 3.13996,0.955636 3.64187,3.181736 0.23991,1.050581 0.13011,1.322096 -0.97167,2.546412 -0.683,0.753801 -1.62122,2.108285 -2.08983,3.010031 -0.47217,0.901755 -1.04465,1.762242 -1.27895,1.91224 -0.23227,0.149564 -0.42854,0.533867 -0.42854,0.852727 -8.4e-4,0.31886 -0.50127,1.14494 -1.10821,1.835543 -0.61026,0.690758 -1.38718,1.656118 -1.72996,2.145548 -0.34123,0.489558 -1.06686,0.978735 -1.61026,1.087259 -0.5449,0.108974 -1.07273,0.468476 -1.17788,0.800864 -0.23226,0.735345 -1.26084,1.82485 -3.21482,3.408209 -0.80959,0.656607 -1.84328,1.774875 -2.29605,2.485183 -0.45048,0.710359 -1.2879,1.574214 -1.85656,1.91995 -0.56661,0.345735 -1.3596,1.299355 -1.75931,2.119386 -0.39942,0.819904 -0.92596,1.613647 -1.17175,1.76362 -0.24757,0.149563 -0.44282,0.456862 -0.44282,0.682027 -4.7e-4,0.804796 -3.06592,4.331826 -3.76538,4.331826 -0.41399,0 -0.81112,0.329757 -0.99923,0.825187 -0.17611,0.453954 -0.52296,0.952674 -0.77717,1.108468 -0.25524,0.155433 -0.9801,1.012373 -1.61153,1.90346 -0.63196,0.891061 -1.23787,1.620103 -1.34813,1.620103 -0.10721,0 -0.41399,0.498977 -0.67559,1.108468 -0.26136,0.609415 -0.77948,1.448028 -1.15391,1.863135 -0.69728,0.775953 -1.26951,1.677198 -2.00024,3.167788 -0.23226,0.469241 -0.84124,1.313163 -1.35835,1.875922 -0.51555,0.562911 -1.1373,1.790647 -1.37952,2.728645 -0.2399,0.937948 -0.86037,2.396057 -1.37365,3.240279 -0.51557,0.84415 -1.30958,2.225511 -1.76799,3.069733 -0.45762,0.84415 -1.42213,2.103127 -2.14188,2.797795 -1.28918,1.24443 -1.3244,1.255327 -2.38386,0.740705 -1.31878,-0.640628 -1.61153,-1.574698 -0.81419,-2.596522 0.33434,-0.424194 0.71898,-1.155176 0.85553,-1.624161 0.13781,-0.469243 0.55921,-1.09734 0.94002,-1.396344 0.57375,-0.453953 0.62454,-0.664595 0.29044,-1.277992 -0.21948,-0.403826 -0.96324,-1.030239 -1.66026,-1.391901 -1.52834,-0.792799 -5.18972,-4.271463 -5.18972,-4.930255 0,-0.258575 -0.2195,-0.649358 -0.47933,-0.867452 -0.56661,-0.472126 -2.24653,-3.812928 -2.25725,-4.495399 -0.004,-0.262198 -0.30526,-0.861301 -0.6756,-1.330313 -0.3632,-0.469216 -0.66845,-1.366252 -0.67534,-1.993814 -0.004,-0.627561 -0.29785,-1.548561 -0.6465,-2.046465 -0.34865,-0.498263 -0.75267,-1.442514 -0.88999,-2.099122 -0.1378,-0.656607 -0.53726,-1.510712 -0.89484,-1.897923 -0.39944,-0.434352 -0.66819,-1.273933 -0.70443,-2.189932 -0.0408,-0.948591 -0.29786,-1.722067 -0.71185,-2.13937 -0.40683,-0.409645 -0.5883,-0.929142 -0.47217,-1.391442 0.0995,-0.405306 -0.0408,-1.03583 -0.31241,-1.39989 -0.26875,-0.363908 -0.49386,-1.160919 -0.49386,-1.770614 0,-0.609389 -0.16089,-1.207115 -0.35581,-1.327813 -0.19652,-0.120732 -0.26134,-0.520799 -0.1455,-0.889251 0.11741,-0.368246 0.0741,-0.854333 -0.0918,-1.079779 -0.16841,-0.225879 -0.32668,-0.778199 -0.34864,-1.228323 -0.0535,-1.045427 -0.49387,-1.479627 -1.21439,-1.202828 -0.49386,0.190403 -0.75956,1.055738 -0.5957,1.965253 0.0252,0.156972 -0.26136,0.366792 -0.63911,0.466306 -0.44282,0.115363 -0.68988,0.464137 -0.68988,0.967631 0,0.432183 -0.38514,1.242771 -0.85273,1.80017 -0.47217,0.557092 -0.85273,1.238406 -0.85273,1.513418 0,0.275292 -0.34863,1.020285 -0.77998,1.656192 -0.42854,0.635551 -0.9959,1.69333 -1.26008,2.349859 -0.26134,0.656609 -1.08014,1.912598 -1.81239,2.791111 -0.73301,0.878582 -1.24067,1.745474 -1.12862,1.926484 0.1174,0.181468 -0.23227,0.797008 -0.76801,1.368854 -1.24398,1.332178 -3.46025,5.043346 -3.46025,5.795473 0,0.790579 -1.25446,3.104741 -2.26901,4.184961 -0.97548,1.039172 -3.38688,1.948202 -3.8743,1.460686 -0.51582,-0.515719 -0.68299,-2.267956 -0.305,-3.252117 z m 68.09563,-37.404646 c 0.3267,0.06049 0.63909,0.368987 0.70443,0.680574 0.0791,0.421999 -0.0714,0.519343 -0.59569,0.382769 -0.85477,-0.223582 -0.95737,-1.226486 -0.1072,-1.063139 z" />
</svg>
