<?xml version="1.0" encoding="utf-8"?>
<svg version="1.1" viewBox="0 0 1170 470" xmlns="http://www.w3.org/2000/svg">
    <title>A crude illustration of an elephant.</title>
    <path d="M 0.88802141,258.62364 C 5.0689025,252.94123 14.230069,248.78461 23.638074,248.30191 c 6.320342,-0.34065 12.144523,-1.83611 15.90886,-4.1321 3.266157,-1.9894 7.10642,-3.62793 8.534089,-3.63748 1.427669,-0.01 4.826321,-1.17864 7.552483,-2.60257 2.726225,-1.42052 6.42516,-2.58554 8.21991,-2.58554 1.794897,0 3.263103,-0.87889 3.263103,-1.95535 0,-1.29446 2.634257,-1.65897 7.787276,-1.07645 5.8276,0.65746 7.78729,0.27252 7.78729,-1.4648 0,-3.58263 6.84669,-7.10666 16.43983,-8.46178 l 8.652545,-1.22293 -4.77653,4.42948 c -2.62711,2.43566 -5.534885,6.42401 -6.461755,8.8617 -1.32616,3.48759 -2.52593,4.2217 -5.62951,3.44262 -2.88565,-0.72558 -5.67974,0.55527 -10.4107,4.76299 -3.55654,3.16465 -6.466416,6.25436 -6.466416,6.86719 0,0.61317 2.665596,0.37812 5.923316,-0.5212 3.25799,-0.89932 6.56742,-1.52271 7.35466,-1.38644 4.4906,0.78349 9.21863,-0.46329 9.21863,-2.43225 0,-2.41863 9.053025,-9.84312 12.001665,-9.84312 0.96744,0 4.30842,-1.55337 7.42473,-3.45454 3.11628,-1.90084 6.68212,-3.45762 7.92406,-3.46102 2.47006,-0.007 16.95353,-6.01999 21.10379,-8.76122 1.42766,-0.9436 5.80248,-3.24299 9.72181,-5.11249 3.91929,-1.86676 8.103,-4.57495 9.29705,-6.01351 1.19398,-1.43755 3.22597,-2.61621 4.51499,-2.61621 1.28936,0 3.56737,-1.86677 5.06266,-4.14947 1.58199,-2.41521 5.14645,-4.60458 8.5252,-5.23853 3.32817,-0.6234 9.01718,-4.08237 13.3284,-8.10138 9.34579,-8.71249 15.10944,-12.70595 16.4311,-11.38422 0.55765,0.55867 -0.82948,3.33498 -3.08255,6.1743 -2.93335,3.69574 -5.07506,4.87745 -7.54375,4.16243 -2.86489,-0.82779 -3.09346,-0.5723 -1.35239,1.52611 1.72369,2.07798 0.74296,3.65451 -5.53467,8.90224 -4.19637,3.50769 -8.7036,6.37767 -10.01606,6.37767 -1.31253,0 -6.38663,2.91939 -11.27597,6.48941 -12.18993,8.89849 -27.48898,18.28003 -36.25132,22.22988 -4.0205,1.81226 -7.3301,4.17774 -7.35466,5.25624 -0.0245,1.07987 -1.40723,2.41182 -3.07302,2.96708 -1.66578,0.55185 -5.07266,2.67071 -7.5712,4.70473 -3.68255,3.00114 -5.21755,3.33839 -8.10615,1.79183 -7.48546,-4.00606 -13.681305,-2.05753 -12.569345,3.95393 0.38016,2.05413 -6.91144,9.71096 -9.26092,9.72424 -1.02365,0.005 -4.04012,1.14799 -6.70295,2.53785 -2.75281,1.43415 -6.93808,2.10523 -9.70138,1.55337 -3.42003,-0.68471 -5.160177,-0.20439 -5.873404,1.6692 -0.616916,1.60786 -4.270432,3.07948 -9.334181,3.75976 -4.576412,0.61317 -11.256722,2.22786 -14.845175,3.58195 -6.680512,2.52422 -14.857772,3.36904 -12.814582,1.32513 0.62612,-0.6268 0.303179,-2.1461 -0.720825,-3.37926 -1.37554,-1.65898 -0.924184,-3.243 1.734262,-6.09766 3.56158,-3.82313 3.563513,-3.88546 0.214613,-7.00413 -3.996862,-3.72365 -5.478869,-4.019 -4.262569,-0.84822 1.200786,3.13058 -2.328013,11.99365 -4.291799,10.7799 -2.129758,-1.3149 -7.081461,0.70856 -7.081461,2.89554 0,1.18206 0.706855,1.17866 2.16314,-0.0116 2.289855,-1.87359 7.278723,1.71007 5.231719,3.75637 -1.957721,1.95874 -17.3434085,1.06282 -19.1416715,-1.11394 -2.45882109,-2.97729 -4.19733509,-13.87404 -2.56646709,-16.09066 z m 17.77436159,3.54447 c 0.985507,0.60977 1.73051,-0.88228 1.73051,-3.46101 0,-2.57873 -0.745003,-4.0701 -1.73051,-3.46102 -0.951776,0.58932 -1.73051,2.14611 -1.73051,3.46102 0,1.31492 0.778734,2.87169 1.73051,3.46101 z m 30.73291,4.32628 c 0.722865,0 2.28679,-1.55678 3.475667,-3.46102 1.781942,-2.85466 1.728122,-3.46102 -0.303179,-3.46102 -1.356476,0 -2.85909,0.97426 -3.339062,2.16314 -1.330924,3.2975 -1.279154,4.7589 0.166913,4.7589 z m 21.182373,-29.41864 c 0.951786,0 1.73051,-0.7801 1.73051,-1.73051 0,-0.95042 -0.778724,-1.73051 -1.73051,-1.73051 -0.951776,0 -1.73051,0.78009 -1.73051,1.73051 0,0.95041 0.778734,1.73051 1.73051,1.73051 z m 47.587694,-26.70536 c 3.38267,-2.57872 12.27322,-7.75561 19.75654,-11.50106 7.48332,-3.7458 14.7919,-8.61985 16.24126,-10.83203 2.51844,-3.84323 22.20301,-16.72087 25.55975,-16.72087 0.88365,0 1.60651,-1.07646 1.60651,-2.39478 0,-2.43565 8.30382,-4.94796 10.94959,-3.31113 0.79849,0.49394 -0.98789,2.38116 -3.96944,4.19376 -2.98137,1.81226 -5.02059,3.9444 -4.53124,4.73607 0.48917,0.79372 -1.6617,3.70016 -4.78005,6.46284 -3.11832,2.76269 -6.40043,6.19134 -7.29349,7.61901 -0.89284,1.42733 -4.34922,3.99447 -7.68045,5.70419 -10.88231,5.58533 -21.1212,11.62882 -25.38915,14.98594 -3.03418,2.38796 -5.82384,3.02839 -10.13157,2.33005 -4.03182,-0.65405 -7.39555,-0.0139 -10.45439,1.9894 -6.91563,4.53135 -6.82668,2.03369 0.11583,-3.26003 z m 81.97302,-53.32588 c 2.50412,-4.51806 5.52628,-8.21685 6.71601,-8.21991 1.18989,-0.003 2.16313,-1.43415 2.16313,-3.1817 0,-1.74753 3.11492,-5.97332 6.92203,-9.39106 3.80712,-3.41776 6.92204,-7.03513 6.92204,-8.03835 0,-1.00152 1.94681,-2.31302 4.32627,-2.90916 3.26446,-0.81757 4.32627,-2.22105 4.32627,-5.71068 0,-3.09311 3.23449,-8.47336 9.77236,-16.25213 9.30789,-11.074913 12.72425,-13.731993 12.72425,-9.896943 0,0.95042 0.77872,1.7305 1.7305,1.7305 2.746,0 2.00712,-6.4458 -0.86525,-7.5478 -2.94153,-1.12756 -3.56788,-6.29626 -0.76306,-6.29626 1.00799,0 1.36499,-0.75624 0.79338,-1.68282 -1.0458,-1.69303 0.0298,-3.73252 10.74673,-20.38218 4.46856,-6.94247 6.85929,-9.08517 10.13597,-9.08517 5.6368,0 6.87366,3.76794 3.47393,10.58267 -1.51555,3.0386 -2.75553,7.30493 -2.75553,9.48169 0,2.17676 -0.77191,4.43528 -1.71517,5.01848 -1.08975,0.67448 -0.82813,3.18168 0.71809,6.88285 1.33807,3.20212 2.01734,6.23903 1.50909,6.74728 -0.50826,0.50757 0.33724,2.18358 1.87766,3.7257 3.16772,3.16806 3.64688,7.01946 1.07134,8.611333 -0.95177,0.58932 -1.73049,2.30961 -1.73049,3.8221 0,2.80356 -16.27772,19.53976 -19.00317,19.53976 -0.82199,0 -2.35526,2.60938 -3.40739,5.79584 -1.05194,3.18849 -4.61675,8.05061 -7.92151,10.80614 -3.30466,2.75586 -6.00862,5.53388 -6.00862,6.1743 0,0.64042 -4.64103,5.99648 -10.31338,11.90269 -7.03186,7.32128 -11.18518,10.40349 -13.05341,9.68642 -3.66746,-1.40688 -1.45868,-5.37275 7.44047,-13.3583 3.79942,-3.40924 7.20927,-7.69225 7.57751,-9.51779 0.42377,-2.10182 2.04664,-3.27026 4.42312,-3.19191 2.06435,0.0682 3.41547,-0.419 3.00215,-1.08667 -1.19431,-1.93149 4.20293,-11.57942 7.10098,-12.6913 1.44709,-0.55527 3.77476,-3.74649 5.17222,-7.091 1.39735,-3.34519 3.30908,-6.08096 4.24815,-6.08096 0.93884,0 1.70735,-1.567 1.70735,-3.48452 0,-1.91787 0.94394,-4.99599 2.09773,-6.84335 2.6489,-4.24144 0.4752,-6.605233 -3.68476,-4.00742 -2.09739,1.3115 -3.73967,1.39326 -4.88306,0.23846 -1.14323,-1.14459 -2.07287,-0.81076 -2.7637,0.98788 -0.5723,1.49206 -0.28616,2.71159 0.63531,2.71159 3.77768,0 1.16912,4.64069 -5.29777,9.42547 -3.79068,2.80357 -7.77656,7.54475 -8.85748,10.53397 -1.08089,2.9875 -4.18865,6.92475 -6.90603,8.74485 -2.71737,1.81908 -4.94295,3.89399 -4.94567,4.60799 -0.003,0.71196 -1.10031,1.29788 -2.43873,1.29788 -1.4297,0 -2.1461,1.25019 -1.73664,3.02839 0.38358,1.66579 -0.67278,4.58585 -2.34742,6.48941 -5.77064,6.55992 -24.48053,19.75641 -22.6949,16.0072 0.11241,-0.23845 2.25477,-4.12938 4.75889,-8.64777 z m 27.37398,86.90558 c 1.60618,-2.3539 5.49982,-7.33899 8.65258,-11.07969 3.15272,-3.74034 5.73224,-7.80125 5.73224,-9.02418 0,-2.21424 5.18001,-5.80607 8.37675,-5.80607 0.92521,0 1.27506,1.55678 0.77702,3.46102 -0.60976,2.33347 -0.0545,3.46102 1.70735,3.46102 4.21655,0 4.78605,-4.63218 1.13948,-9.2681 l -3.38029,-4.29766 5.88884,-4.89788 c 3.23892,-2.69455 9.16107,-9.05792 13.16045,-14.14213 5.21316,-6.62703 8.16783,-9.0092 10.43758,-8.41579 2.36072,0.61658 2.90099,0.10219 2.12397,-2.00303 -0.57331,-1.55678 -1.87767,-3.40312 -2.89894,-4.10383 -1.11325,-0.76306 -0.62238,-1.28085 1.226,-1.29788 1.69542,-0.0147 3.51208,-1.14459 4.03685,-2.51401 1.41814,-3.69572 6.10455,-1.11052 5.69678,3.14081 -0.19416,2.02006 0.23846,5.04095 0.96064,6.71389 0.80564,1.86677 0.23846,4.68396 -1.47332,7.29369 -1.53225,2.34027 -2.78584,5.4804 -2.78584,6.98165 0,1.50226 -0.78793,3.67051 -1.75129,4.81987 -6.44172,7.6885 -12.09867,15.83483 -12.13138,17.46995 -0.0211,1.05943 -1.6174,3.87219 -3.54733,6.25164 -7.01517,8.64913 -11.98875,17.31701 -11.98875,20.8935 0,2.03369 -1.35034,4.01049 -3.04304,4.45333 -1.67361,0.43945 -4.81189,3.86912 -6.9737,7.62514 -5.55835,9.65814 -9.01871,9.03986 -9.01871,-1.61128 0,-10.71859 -3.1885,-14.03619 -9.50915,-9.89455 -5.04238,3.30431 -5.53728,1.8327 -1.41472,-4.20909 z M 327.49694,20.095897 c 2.34607,-1.53635 4.95082,-2.79335 5.78856,-2.79335 0.83766,0 2.96536,-1.59424 4.72779,-3.54107 1.76253,-1.94853 7.05577,-5.4752904 11.76275,-7.8397504 9.6079,-4.82566 28.83177,-7.74572 28.83177,-4.37941 0,1.39327 0.95995,1.53293 3.02839,0.44967 3.24368,-1.69985995 30.69669,1.33875 34.70889,3.84185 1.24337,0.77669 3.96995,1.61129 6.05678,1.85655 6.50541,0.76307 23.6957,6.7101604 23.6957,8.1967604 0,0.77668 1.09008,1.4137 2.42203,1.4137 1.33195,0 6.47204,2.72521 11.42204,6.05678 4.95034,3.33157 10.01651,6.05678 11.25852,6.05678 1.24338,0 5.64152,2.84444 9.77669,6.32146 4.13483,3.47703 11.6513,8.9806 16.70247,12.23007 5.05117,3.24981 9.54096,6.83857 9.97734,7.97532 0.43603,1.13778 5.78528,7.36216 11.88667,13.83487 6.10175,6.47271 12.60035,14.81356 14.44192,18.53517 1.83952,3.72196 3.97029,6.20429 4.7313,5.51685 0.75965,-0.68811 0.838,-0.30658 0.17033,0.86185 -1.68282,2.9296 3.23619,11.859773 12.16499,22.085103 4.14096,4.74254 7.52908,9.53312 7.52908,10.64569 0,1.18547 4.3014,2.52082 10.38305,3.22938 7.30015,0.84822 10.38305,1.94171 10.38305,3.68516 0,1.36261 1.19228,2.93641 2.64686,3.49577 2.31642,0.8891 2.28236,1.28084 -0.27252,3.14761 -1.60447,1.17184 -3.05565,4.00129 -3.22597,6.28501 -0.17033,2.5038 -1.40348,4.16038 -3.06927,4.17401 -1.51589,0.0119 -3.33157,0.59614 -4.03433,1.29788 -3.77782,3.77782 -18.0041,-2.60258 -18.0041,-8.07446 0,-1.19568 -3.45625,-4.65874 -7.68032,-7.69225 -7.72393,-5.54715 -11.84104,-12.50258 -8.13203,-13.73913 1.09008,-0.3611 -0.34065,-2.94323 -3.23278,-5.83366 -3.26684,-3.26345 -5.18335,-6.95917 -5.18335,-9.98211 0,-2.64004 -2.33687,-8.023693 -5.19153,-11.965373 -2.85465,-3.94168 -5.19152,-7.65511 -5.19152,-8.25159 0,-3.75296 -40.13791,-39.19533 -52.74303,-46.57248 -1.66238,-0.97426 -3.26344,-3.96212 -3.55742,-6.64236 -0.7324,-6.67915 -1.92128,-7.39009 -6.07483,-3.63236 -3.35542,3.0352 -3.8279,3.05564 -8.23048,0.34065 -3.55265,-2.19039 -4.61004,-4.13925 -4.4162,-8.1351 0.20439,-4.20158 -0.44625,-5.25386 -3.23959,-5.25386 -2.98752,0 -3.16466,0.39857 -1.23317,2.72862 1.877,2.26192 1.83953,2.99773 -0.20438,4.2997 -3.64361,2.3062 -4.81171,2.00984 -7.21261,-1.83611 -1.18888,-1.90425 -3.972,-3.46102 -6.18521,-3.46102 -2.21423,0 -5.72464,-0.91294 -7.80364,-2.03029 -2.07796,-1.11733 -7.55734,-1.83269 -12.17453,-1.59424 -8.36163,0.43603 -18.42814,-2.39478 -18.42814,-5.18369 0,-0.8073404 -1.30334,-0.9674504 -2.89622,-0.3542704 -2.25,0.8652504 -2.6305,0.4190004 -1.70496,-1.99282 0.98653,-2.57192 0.51711,-2.92279 -2.72793,-2.05412 -2.15564,0.5791 -4.6981,1.07305 -5.64987,1.1003 -0.95178,0.0276 -0.6234,0.75284 0.73002,1.60787 1.81089,1.14459 0.44079,2.1154504 -5.19154,3.6742704 -4.20857,1.16503 -10.02154,2.28577 -12.91773,2.49016 -2.89622,0.20439 -6.9333,1.26381 -8.97139,2.35731 -2.03811,1.09008 -5.70366,1.98259 -8.14565,1.98259 -2.44213,0 -4.44005,0.86184 -4.44005,1.91445 0,1.05262 -1.11121,1.48866 -2.46938,0.96746 -1.35818,-0.52119 -3.40038,0.17033 -4.53816,1.54655 -1.13777,1.37283 -2.75212,2.49357 -3.58753,2.49357 -2.92722,0 -1.47877,-3.08971 2.74667,-5.85784 z m 31.10789,-9.71674 c 0.41969,0 1.24441,-0.7800904 1.83271,-1.7305104 0.58831,-0.95042 0.24527,-1.73051 -0.76306,-1.73051 -1.00798,0 -1.8327,0.78009 -1.8327,1.73051 0,0.95042 0.34338,1.7305104 0.76305,1.7305104 z m 51.49817,2.07797 c 1.61468,-1.61469 1.15481,-2.07797 -2.07798,-2.07797 -3.22937,0 -3.69163,0.45988 -2.07797,2.07797 1.61469,1.61468 2.53786,1.61468 4.15322,0 z M 554.35654,133.24661 c 2.43565,0 3.99242,-0.70515 3.4593,-1.567 -0.53141,-0.86185 -2.52763,-1.16161 -4.42846,-0.66427 -4.76162,1.24679 -4.33309,2.23127 0.96744,2.23127 z M 358.92675,459.86676 c 1.36772,-2.60938 3.17351,-4.7456 4.01332,-4.7456 0.8397,0 4.0282,-4.0885 7.08547,-9.08517 3.05735,-4.99702 6.62833,-9.70788 7.93571,-10.46924 1.30742,-0.75965 2.37707,-2.514 2.37707,-3.89364 0,-1.37964 0.83562,-2.5106 1.8569,-2.5106 1.02126,0 5.67504,-4.08816 10.34185,-9.08483 6.69064,-7.1639 8.71853,-10.73188 9.59025,-16.87246 0.74603,-5.25795 2.78312,-9.55833 6.26935,-13.23873 3.77783,-3.98732 4.85394,-6.42911 4.00844,-9.09368 -0.77327,-2.43566 -0.30658,-3.96825 1.40349,-4.62468 1.40689,-0.54164 3.01136,-2.78653 3.5656,-4.99191 1.03899,-4.13652 5.34243,-6.874 8.11465,-5.16086 2.86147,1.76798 1.63853,5.65753 -2.89894,9.2262 -2.45951,1.9349 -3.94032,4.37634 -3.2907,5.42623 0.64725,1.04921 0.0682,3.22256 -1.30128,4.8284 -1.36261,1.60446 -3.51518,5.64492 -4.7807,8.97615 -1.26382,3.33157 -3.243,7.22487 -4.3927,8.65254 -4.67067,5.79414 -12.90523,23.66061 -12.90864,28.00801 -0.004,5.68445 -2.98547,13.88903 -5.64272,15.53131 -1.07884,0.66768 -3.31521,0.48713 -4.96948,-0.39857 -4.61559,-2.46972 -10.15744,-1.93149 -10.15744,0.9879 0,1.42733 0.82471,2.59576 1.83271,2.59576 1.00798,0 1.32786,0.81756 0.71127,1.81567 -0.75386,1.21954 -2.02789,1.07987 -3.88713,-0.43263 -2.37911,-1.93149 -2.59951,-1.80545 -1.57653,0.92317 0.65405,1.74413 1.1892,3.88513 1.1892,4.75889 0,0.87548 2.33619,1.58744 5.19153,1.58744 2.85534,0 5.19152,-0.78009 5.19152,-1.73051 0,-0.95041 -0.77872,-1.73051 -1.7305,-1.73051 -0.95178,0 -1.73051,-1.16843 -1.73051,-2.59576 0,-2.84443 3.0444,-3.35541 6.58976,-1.10712 3.06143,1.94171 1.05943,9.36008 -3.70778,13.73949 -5.53926,5.08865 -16.49801,6.33884 -22.1857,2.53104 -4.33884,-2.90575 -4.45609,-3.34179 -2.10795,-7.8217 z M 396.95011,77.410127 c 0.69834,-0.69834 3.05565,-1.27064 5.24126,-1.27064 3.17827,0 4.34875,1.40349 5.85784,7.00721 1.87358,6.96017 1.0458,13.75889 -1.67942,13.75889 -5.50866,0 -13.13516,-15.78203 -9.42104,-19.49581 z m 92.25142,315.412733 c 1.49887,-13.45471 2.90916,-14.95596 8.1678,-8.70466 4.04864,4.81169 4.32218,6.32998 4.13107,22.93571 -0.10218,9.78077 0.03,19.34047 0.30659,21.24334 0.37472,2.47654 -0.59273,3.61874 -3.39629,4.0173 -4.42949,0.63021 -3.54379,3.77102 1.06283,3.77102 2.43225,0 2.9841,1.54995 2.92619,8.21991 -0.0682,7.96374 -0.23845,8.21991 -5.26203,8.21991 h -5.19153 l -1.18206,-17.30508 c -0.65064,-9.51779 -1.50908,-20.80937 -1.90765,-25.09237 -0.39856,-4.28301 -0.23845,-12.0703 0.34066,-17.30508 z m 96.63151,-249.52227 c 1.66579,-0.30659 3.02499,-2.03709 3.02839,-3.81835 0.004,-4.28813 9.28514,-5.37344 17.30271,-2.02348 5.87214,2.45269 18.2974,2.93642 75.28256,2.9262 12.84902,-0.003 26.08741,-0.10219 29.41864,-0.23846 3.33157,-0.13626 8.56874,0.0682 11.63903,0.48032 3.06927,0.39515 10.46822,0.034 16.43983,-0.78009 13.98646,-1.92809 61.26306,-2.86829 63.85065,-1.27063 1.09008,0.67449 4.40291,0.53141 7.36215,-0.30659 3.26003,-0.93338 9.13797,-0.86866 14.90996,0.17032 5.2416,0.94021 13.034,2.12907 17.31701,2.64346 4.28301,0.51438 9.34474,1.43414 11.2483,2.04732 1.90424,0.61317 10.46958,1.06282 19.0356,1.00491 8.56601,-0.0682 16.50898,0.65065 17.6505,1.57381 1.14118,0.92657 4.29629,1.44777 7.00992,1.16504 3.28047,-0.34407 11.85944,2.88872 25.61221,9.65303 11.37298,5.59383 23.40376,10.32752 26.73499,10.51964 8.55716,0.49396 33.91054,6.68972 41.22864,10.07613 3.7475,1.73392 3.8154,2.01325 0.9913,4.07794 -1.6657,1.21953 -2.5685,2.67752 -2.003,3.24299 0.5654,0.56549 2.6503,-0.59614 4.6325,-2.57872 4.2162,-4.21624 7.75737,-4.40633 21.56497,-1.15821 10.7479,2.52763 14.2436,5.44564 11.0854,9.25105 -2.5549,3.0795 -23.1867,2.27215 -22.5558,-0.88228 0.6166,-3.07948 -2.9365,-2.68774 -4.1414,0.45307 -1.25007,3.25662 -14.44487,2.38115 -22.24887,-1.47161 -2.8547,-1.4103 -12.43349,-3.52881 -21.28493,-4.70815 -12.01307,-1.60105 -15.87128,-2.7218 -15.21757,-4.42744 1.06964,-2.78653 -1.76457,-4.87744 -3.28047,-2.42203 -1.70326,2.75246 -7.69293,2.06775 -12.72912,-1.45458 -4.04796,-2.83422 -8.10477,-4.22817 -17.57215,-6.04145 -4.59198,-0.87888 -11.74361,-4.3198 -12.91272,-6.21143 -0.6234,-1.01174 -4.54123,-1.83612 -8.70399,-1.83612 -6.04894,0 -7.78933,-0.69492 -8.66718,-3.46102 -0.60296,-1.90423 -1.79864,-3.46101 -2.65709,-3.46101 -0.85844,0 -1.10711,1.17525 -0.55526,2.6162 0.85844,2.24149 -0.94701,2.49016 -12.60035,1.73391 -7.4824,-0.48372 -16.71916,-1.64193 -20.52627,-2.57532 -3.80713,-0.92997 -11.30895,-1.71007 -16.67046,-1.73391 -8.45462,-0.034 -9.87582,-0.52801 -10.70666,-3.70424 -0.83801,-3.21235 -1.77139,-3.51553 -7.55633,-2.46972 -11.48881,2.08138 -41.95699,1.74753 -44.18792,-0.48373 -2.78653,-2.78653 -4.80829,-2.55829 -4.80829,0.54164 0,2.01325 -1.99962,2.49016 -9.08516,2.16314 -4.99668,-0.23847 -9.86391,-1.37624 -10.81568,-2.54808 -1.17185,-1.44436 -2.56511,-1.59425 -4.32627,-0.45988 -2.21764,1.42734 -2.15293,1.67601 0.43263,1.69645 1.66578,0.0147 3.02838,0.80393 3.02838,1.75776 0,2.34027 -8.1511,2.21082 -9.61079,-0.13627 -0.64043,-1.03557 -2.82741,-1.38644 -4.8611,-0.7835 -2.03369,0.60296 -8.12487,1.37964 -13.53475,1.72711 -7.92389,0.50416 -9.6544,0.17032 -8.9002,-1.81227 0.51438,-1.34216 0.0682,-2.43906 -0.97766,-2.43906 -1.05262,0 -1.91447,1.16843 -1.91447,2.59576 0,1.42733 -0.97426,2.60598 -2.16313,2.61961 -1.18888,0.0129 -3.9151,0.49395 -6.05678,1.06624 -2.94663,0.79031 -3.89364,0.30659 -3.89364,-1.96556 0,-2.33346 -0.52461,-2.57192 -2.34368,-1.06624 -1.45459,1.20932 -5.37684,1.52612 -10.35887,0.84481 -5.41192,-0.74261 -8.8835,-0.37812 -10.68419,1.11394 -2.01665,1.6726 -6.34701,1.87358 -17.76189,0.81756 -8.30167,-0.76647 -17.8198,-1.26041 -21.15103,-1.09349 -12.07439,0.60296 -39.80169,-3.48452 -39.80169,-5.86908 0,-1.25019 1.3626,-2.53785 3.02497,-2.85806 z m 14.27977,4.29153 c 1.90424,0.49734 3.46101,0.20438 3.46101,-0.66427 0,-0.86185 -1.55677,-1.567 -3.46101,-1.567 -1.90424,0 -3.46102,0.30658 -3.46102,0.66427 0,0.3645 1.55678,1.06964 3.46102,1.567 z m 114.58077,267.08896 c 1.15481,0.71197 4.5603,1.13097 7.57029,0.92657 3.01135,-0.20438 7.47627,0.39176 9.92522,1.32514 2.44928,0.92998 14.81118,1.71347 27.47216,1.73732 12.66132,0.0245 25.83805,0.0682 29.28237,0.13626 3.44399,0.034 9.67382,-1.05602 13.84407,-2.45609 4.16992,-1.40008 17.31599,-3.02499 29.21323,-3.60886 11.89725,-0.58252 28.42189,-1.86336 36.72119,-2.84103 14.24603,-1.67942 15.48157,-1.56019 22.096,2.15973 3.85344,2.16654 6.74966,4.70745 6.43591,5.64833 -0.87546,2.62642 -20.71806,6.20429 -23.22116,4.18524 -1.37283,-1.10711 -4.09293,-1.03217 -7.88915,0.23846 -3.18508,1.05261 -8.47233,1.80545 -11.7477,1.6726 -3.27366,-0.13626 -9.45954,0.30658 -13.74255,0.94019 -4.283,0.64724 -13.23838,1.82249 -19.90085,2.60939 -6.66245,0.78691 -14.2709,2.28577 -16.90788,3.33157 -2.63663,1.0458 -11.20333,2.33346 -19.03559,2.86147 -7.83259,0.52801 -16.08487,1.35579 -18.33828,1.84293 -2.4595,0.53141 -5.36389,-0.27253 -7.26983,-1.986 -2.53105,-2.28918 -5.64596,-2.71158 -15.37598,-2.07457 -8.65288,0.56549 -12.73968,0.13626 -14.04845,-1.42733 -1.01515,-1.22293 -4.12666,-2.72521 -6.91489,-3.33838 -2.78993,-0.61317 -6.23903,-2.78312 -7.66772,-4.82259 -3.14761,-4.49525 -3.45965,-8.86716 -0.50075,-7.0382 z M 1023.7231,369.8105 c 2.6844,-2.57192 6.3948,-4.65057 8.2462,-4.62059 4.1192,0.0682 12.8841,7.49977 12.8841,10.92571 0,1.37282 1.1685,2.94323 2.5958,3.48962 1.4274,0.54845 2.5957,2.18698 2.5957,3.646 0,1.45798 0.7802,2.65026 1.7305,2.65026 0.9504,0 1.7305,1.25701 1.7305,2.79334 0,1.53634 1.6624,5.74815 3.6913,9.36007 l 3.691,6.56742 -3.8753,5.44225 c -3.713,5.21469 -3.7475,5.58293 -0.8277,8.81026 4.1832,4.6223 6.2529,4.22169 4.9527,-0.95722 -2.3675,-9.43877 7.7917,-1.9826 11.1901,8.20969 2.6264,7.87722 1.5635,9.96064 -5.0808,9.96064 -3.4165,0 -5.0894,0.87206 -5.0894,2.65026 0,1.45799 -1.2706,3.13741 -2.8206,3.7332 -2.1086,0.81075 -1.383,1.56018 2.8649,2.97389 12.0301,3.99924 14.8715,15.89853 5.0137,20.99604 -13.0746,6.76124 -17.5003,0.61658 -18.1182,-25.16153 -0.5723,-23.92461 -2.8853,-34.95831 -8.8269,-42.09768 -5.4968,-6.60658 -5.1306,-8.04175 1.7679,-6.92237 3.4218,0.55526 6.3289,0.13626 7.0263,-0.97766 1.5704,-2.54467 -7.2593,-5.8575 -12.2634,-4.60152 -5.2042,1.30469 -12.7132,-2.33347 -12.7132,-6.16068 0,-1.70326 -1.1786,-3.75772 -2.623,-4.56473 -2.1869,-1.22294 -1.8122,-2.24148 2.2586,-6.14297 z m 43.9515,60.53578 c 1.3797,-0.55187 0.971,-0.96405 -1.0457,-1.04581 -1.826,-0.0682 -2.8478,0.34065 -2.2721,0.90954 0.5756,0.5757 2.0677,0.63702 3.3178,0.13627 z m 12.4979,-66.94139 c 3.0931,0 18.3488,12.13366 21.7866,17.32655 3.754,5.67013 11.0494,14.59759 12.4475,15.23154 0.6608,0.30659 6.3409,4.38759 12.6252,9.08517 6.2847,4.69792 11.7456,8.54148 12.1356,8.54148 2.2824,0 15.1086,9.91568 22.7089,17.55547 9.7975,9.84788 10.1711,12.83437 2.681,21.42321 -2.9603,3.3929 -5.0246,4.32593 -7.7874,3.51825 -2.0677,-0.60636 -6.2479,-1.55337 -9.2885,-2.10863 -3.927,-0.71537 -5.9955,-2.32665 -7.1414,-5.55671 -0.8891,-2.50037 -3.5844,-6.65223 -5.9931,-9.22415 -8.6416,-9.22585 -23.7345,-30.45047 -23.7345,-33.37667 0,-1.84633 -0.9232,-2.62983 -2.4221,-2.05412 -3.1919,1.22635 -25.6418,-22.4244 -24.907,-26.239 0.3066,-1.55678 -0.8278,-4.20535 -2.5038,-5.88203 -3.6599,-3.65996 -3.9979,-8.23967 -0.6064,-8.23967 z m 54.2991,69.45675 c 0.4156,-1.25019 -0.068,-3.09312 -1.073,-4.09837 -1.2843,-1.28426 -1.5092,-0.60977 -0.7563,2.26874 0.6132,2.34027 1.3967,3.12377 1.8293,1.82929 z m 6.6359,4.95511 c 2.2994,0 2.4186,-0.4701 0.654,-2.59576 -1.1854,-1.42733 -2.4493,-2.59577 -2.8069,-2.59577 -0.3577,0 -0.6541,1.16844 -0.6541,2.59577 0,1.42733 1.2639,2.59576 2.807,2.59576 z M 1117.2347,176.51 c 2.1461,0 4.4076,-2.1972 6.24,-6.05678 1.5806,-3.33157 3.4215,-6.06564 4.0909,-6.07688 0.6676,-0.0109 2.5378,-2.9296 4.1539,-6.4894 3.3827,-7.4463 5.9201,-24.63965 3.6388,-24.63965 -1.8906,0 -6.284,-19.10747 -5.4228,-23.57954 0.5007,-2.59576 2.1733,-3.24299 8.3589,-3.24299 7.6568,0 7.7467,0.0682 9.0106,6.92203 0.7017,3.80711 1.3149,15.84573 1.3592,26.75236 0.068,19.52544 -8e-4,19.95126 -5.4035,27.68813 -3.0181,4.32184 -6.6863,8.83105 -8.1514,10.02094 -3.1715,2.57532 -18.6435,2.90575 -20.1726,0.43263 -0.5894,-0.95042 0.4461,-1.73051 2.2959,-1.73051 z"/>
</svg>