<?xml version="1.0" encoding="utf-8"?>
<svg version="1.1" viewBox="0 0 478 283" xmlns="http://www.w3.org/2000/svg">
    <title>The same drawing of Henry VIII, now with a hat.</title>
    <path d="m 1.5920204,103.36635 c 2.156259,-2.96819 3.104746,-3.638839 5.382606,-3.805439 2.612115,-0.19091 7.0982276,-1.02215 8.3074966,-1.53797 0.62511,-0.26728 1.19134,-0.12552 1.609238,0.40026 0.356985,0.44981 2.320435,1.07829 4.399622,1.40872 7.483513,1.189279 8.622109,1.511849 10.996439,3.116439 1.327622,0.89756 3.379396,1.95645 4.559502,2.35411 3.436907,1.15782 7.140663,3.7764 7.87146,5.56505 0.366202,0.89646 0.977791,1.9485 1.358993,2.33836 0.3813,0.38972 0.693216,1.02742 0.693216,1.4178 0,0.38973 0.301774,0.81939 0.670513,0.95562 1.039352,0.38226 2.06297,-0.15317 1.62305,-0.84792 -0.681814,-1.0778 -0.557848,-5.69434 0.169144,-6.29758 0.937032,-0.77822 3.628352,-0.77612 7.460941,0.004 1.770158,0.35988 4.032178,0.76659 5.026717,0.90177 0.994472,0.13517 2.503351,0.60609 3.352932,1.04536 1.129314,0.58393 4.321409,0.89014 11.870262,1.13798 5.67906,0.18696 12.61872,0.438 15.421468,0.55856 2.90777,0.12464 7.28407,-0.11104 10.19182,-0.54908 3.1038,-0.46776 5.45517,-0.58393 6.01487,-0.29581 0.50548,0.25982 4.42936,0.54593 8.71985,0.63462 6.83655,0.14132 7.88991,0.28308 8.52099,1.14645 0.79057,1.08113 1.95566,0.71063 1.95566,-0.62299 0,-1.15215 2.11477,-4.51402 3.57175,-5.67798 0.65595,-0.52371 1.3382,-1.41165 1.51623,-1.97254 0.30831,-0.97147 3.52906,-3.24351 4.59808,-3.24351 0.27812,0 0.50579,0.48255 0.50579,1.0728 0,0.5903 0.35607,1.07285 0.79132,1.07285 0.61814,0 0.68202,-0.28703 0.29176,-1.3141 -0.44908,-1.18116 -0.21711,-1.53345 2.29303,-3.481809 1.53595,-1.19227 3.04923,-2.3786 3.36284,-2.63644 1.09103,-0.89651 2.65196,-1.5403 3.22886,-1.33122 0.31933,0.11631 0.56071,-0.33881 0.53642,-1.01157 -0.0369,-1.02957 0.84284,-1.66332 5.58815,-4.02565 3.09778,-1.54218 5.97884,-2.80951 6.40237,-2.81616 0.42352,-0.007 1.30362,-0.51318 1.95577,-1.12615 1.38494,-1.30111 2.7556,-1.59645 8.39973,-1.80996 3.83439,-0.14466 4.3271,-0.29989 6.43694,-2.02073 2.63529,-2.14956 5.22468,-3.40675 7.96538,-3.86724 1.05917,-0.17845 2.47003,-0.90282 3.13524,-1.61103 0.66524,-0.70747 1.84847,-1.44778 2.62945,-1.64376 0.78096,-0.1964 3.13186,-1.42339 5.22417,-2.72747 2.09231,-1.30407 4.11055,-2.37108 4.48498,-2.37108 0.37446,0 1.8233,-1.02531 3.21971,-2.27975 1.39642,-1.25381 3.24227,-2.64141 4.1019,-3.08342 0.85963,-0.44244 1.75601,-1.10587 1.99194,-1.47513 0.2359,-0.36959 0.74158,-0.67157 1.12379,-0.67157 0.38214,0 1.12657,-0.47728 1.65427,-1.06016 0.52765,-0.58287 1.16807,-0.93133 1.42307,-0.77399 0.25499,0.15734 1.12792,-0.0634 1.93986,-0.50051 0.8119,-0.43291 2.80384,-1.31653 4.42649,-1.96403 1.62265,-0.64728 3.55373,-1.72169 4.29129,-2.38724 1.70959,-1.5425 8.52052,-5.11577 9.75107,-5.11577 0.51445,0 1.36721,-0.44665 1.89499,-0.99257 0.52776,-0.54591 2.13653,-1.33057 3.57497,-1.74334 1.43844,-0.41285 2.73154,-1.0517 2.87355,-1.42106 0.14202,-0.36853 0.89617,-0.68847 1.67595,-0.70959 0.7798,-0.0211 2.1419,-0.50051 3.02697,-1.0648 2.27579,-1.45053 3.90914,-2.11175 5.26494,-2.1315 0.64464,-0.009 1.64056,-0.37168 2.21325,-0.80461 0.57273,-0.43292 1.37329,-0.78773 1.77913,-0.78773 0.40579,0 1.52906,-0.60293 2.49607,-1.34102 0.96702,-0.7381 2.2248,-1.34103 2.79512,-1.34103 0.5703,0 1.60419,-0.39701 2.29752,-0.88276 0.69332,-0.48573 2.00271,-0.96934 2.90977,-1.07504 0.90704,-0.1056 2.5186,-0.79406 3.58121,-1.53089 1.0626,-0.73598 2.46215,-1.33891 3.11011,-1.33891 0.81676,0 1.17809,-0.32627 1.17809,-1.06259 0,-0.72436 0.46915,-1.16353 1.47513,-1.37988 0.81138,-0.17424 2.38607,-0.70114 3.49944,-1.17029 1.11336,-0.46883 3.28584,-0.8817 4.82771,-0.9176 3.18188,-0.0739 4.98868,-0.87748 5.48518,-2.44194 0.27241,-0.85741 0.54169,-0.96512 1.34209,-0.53747 1.46415,0.7835 1.83985,0.65679 1.01052,-0.34211 -0.65784,-0.793 -0.52585,-0.85424 1.35497,-0.63461 1.367,0.15945 2.74108,-0.095 3.995,-0.73176 1.0517,-0.53535 2.35049,-0.97462 2.88743,-0.97462 0.53642,0 1.11517,-0.36221 1.28497,-0.80462 0.17002,-0.44243 0.62511,-0.80462 1.01158,-0.80462 0.38647,0 0.78772,-0.25657 0.89225,-0.56914 0.19113,-0.574427 5.09708,-2.479427 10.72539,-4.165851 1.67618,-0.502624 3.22512,-1.090671 3.4419,-1.307451 0.21646,-0.216456 0.81623,-0.393851 1.33301,-0.393851 0.51635,0 1.01897,-0.2323 1.11749,-0.51741 0.095,-0.284043 1.98926,-0.794057 4.20196,-1.131951 2.2127,-0.337894 4.66372,-0.950339 5.4468,-1.360354 0.78349,-0.409695 2.29178,-0.745487 3.35257,-0.745487 1.37651,0 1.92887,-0.235459 1.92887,-0.823625 0,-0.657842 0.21645,-0.70747 1.07282,-0.249196 0.7138,0.382265 1.07282,0.390692 1.07282,0.02107 0,-0.30094 0.89649,-0.922882 1.9919,-1.380309 1.09553,-0.45827 2.36275,-1.153496 2.81617,-1.546088 0.45299,-0.392798 2.50403,-1.247794 4.55707,-1.900357 2.05315,-0.652562 4.35718,-1.630989 5.1202,-2.174261 1.71873,-1.223823 10.56224,-3.35056698 12.97113,-3.11932098 1.46647,0.140442 2.08103,0.64095 3.50811,2.85269598 0.95139,1.475135 2.15853,3.285525 2.68206,4.02309 0.52374,0.737038 0.9968,1.871741 1.05171,2.520292 0.0845,1.020024 -0.23972,1.224139 -2.41386,1.511878 -1.38252,0.182662 -2.99641,0.541692 -3.58646,0.798284 -0.59026,0.255516 -2.76252,0.857409 -4.8277,1.337224 -5.35979,1.244731 -5.34564,1.239346 -7.04189,2.69811 -0.84791,0.728589 -1.91587,1.325401 -2.37447,1.325717 -0.45827,4.26e-4 -1.91893,0.688467 -3.24529,1.530148 -1.32645,0.841575 -3.28404,1.692972 -4.35011,1.893071 -1.06617,0.199552 -3.28235,1.080742 -4.92485,1.957152 -1.64249,0.87643 -3.46513,1.59361 -4.05022,1.59361 -1.40502,0 -5.93517,2.4807 -7.19605,3.94041 -1.61821,1.87343 -3.71275,3.02566 -5.5072,3.02946 -0.92288,0.002 -1.9881,0.37801 -2.36749,0.83419 -0.37906,0.45721 -1.79698,1.31642 -3.15005,1.90943 -4.91176,2.15283 -9.16535,4.40344 -9.16535,4.84935 0,0.2513 -0.25131,0.45617 -0.55859,0.45617 -0.30726,0 -1.07705,0.48255 -1.7104,1.07282 -1.66551,1.55168 -3.8516,1.3839 -5.14743,-0.39491 -1.02426,-1.40544 -1.11316,-1.42825 -2.09856,-0.53641 -0.56598,0.51212 -1.42117,0.93133 -1.90025,0.93133 -0.47939,0 -2.63253,0.9271 -4.78547,2.06075 -2.15293,1.13343 -5.1676,2.36095 -6.6992,2.72799 -1.53159,0.36747 -4.90674,1.88409 -7.50031,3.37126 -2.59359,1.48707 -5.56986,3.00517 -6.61394,3.37359 -1.0441,0.36853 -2.83206,1.30344 -3.97328,2.07786 -1.14123,0.77505 -2.30573,1.40808 -2.58781,1.40808 -0.28202,0 -1.15358,0.45088 -1.93668,1.00207 -0.78308,0.5512 -3.11354,1.42033 -5.17872,1.93108 -2.06519,0.51108 -3.99817,1.12689 -4.29553,1.36933 -0.725,0.59132 -5.15362,2.11651 -6.17249,2.12622 -0.44697,0.004 -2.25732,0.71064 -4.02308,1.56953 -3.38218,1.64514 -7.85695,3.35733 -12.32949,4.71779 -1.47513,0.44877 -3.10121,1.02953 -3.6135,1.29129 -0.51234,0.26188 -1.48991,0.47517 -2.17247,0.47517 -0.68256,0 -1.51805,0.27667 -1.85662,0.61561 -0.67632,0.67685 -4.4444,2.698 -12.93123,6.93777 l -5.55429,2.77477 -2.40296,4.97036 c -2.37272,4.90785 -2.40369,5.04364 -2.46145,10.79426 -0.0316,3.20304 0.14246,7.677949 0.38806,9.944069 0.36988,3.41361 0.24634,5.02391 -0.72025,9.38721 -1.96202,8.85674 -2.28919,9.81793 -3.72631,10.9484 -1.73937,1.36816 -4.39898,1.01368 -8.84883,-1.18019 -2.86193,-1.41083 -3.23146,-1.47504 -4.27656,-0.74338 -2.09296,1.46604 -6.26933,0.70221 -6.26933,-1.14644 0,-0.46039 -0.38288,-1.48513 -0.85076,-2.27722 -0.81306,-1.37651 -0.76565,-1.61956 1.07282,-5.49281 1.05797,-2.22885 1.92508,-4.51463 1.92689,-5.07947 0.002,-0.56488 0.36388,-1.7183 0.80462,-2.56337 0.44075,-0.84471 0.80135,-1.82578 0.80135,-2.17943 0,-0.82255 2.492,-3.08024 4.51291,-4.08769 1.87526,-0.93451 3.52849,-3.466319 3.53126,-5.407009 10e-4,-0.77502 0.36409,-1.70983 0.80662,-2.07722 0.90261,-0.74864 1.10275,-5.13499 0.29269,-6.41562 -0.4305,-0.68107 -0.62268,-0.67157 -1.46691,0.0739 -0.53431,0.46883 -2.35563,1.02003 -4.04738,1.22318 -1.69176,0.20378 -3.21466,0.59449 -3.38424,0.86904 -0.16959,0.27456 -0.81771,0.49839 -1.44022,0.49839 -0.62257,0 -2.47903,0.77928 -4.12553,1.73234 -2.65066,1.53375 -3.45455,1.73173 -7.01672,1.72805 -2.2127,-0.002 -3.35928,0.0737 -2.54795,0.18038 2.18599,0.27473 1.80742,0.81728 -1.34103,1.9258 -1.5489,0.54483 -3.25706,1.45621 -3.79593,2.02495 -0.53884,0.56809 -1.69047,1.17607 -2.55912,1.34978 -0.8686,0.17424 -1.70927,0.52587 -1.86806,0.78349 -0.15883,0.256739 -0.71983,0.466749 -1.24673,0.466749 -1.17492,0 -2.73353,1.63742 -2.73353,2.87168 0,0.95562 -2.41784,2.18273 -3.26728,1.6577 -0.27232,-0.1681 -0.63091,0.0527 -0.7967,0.47938 -0.27008,0.70432 -1.69514,0.81413 -5.21699,0.40553 -0.23664,-0.0307 -0.6853,-0.78138 -0.99722,-1.67639 -0.47358,-1.35842 -0.69839,-1.51734 -1.36438,-0.9651 -0.57178,0.47412 -0.70525,1.23795 -0.47179,2.69811 0.31499,1.96995 0.25543,2.06677 -1.82618,2.96863 -1.42312,0.61667 -2.15181,1.27534 -2.15181,1.94555 0,0.82786 0.27961,0.95773 1.53006,0.70748 0.84157,-0.16809 3.19505,-0.0439 5.23001,0.27123 2.03498,0.31687 4.5448,0.61772 5.57739,0.66736 1.0326,0.0527 2.37034,0.36207 2.97277,0.69374 0.60241,0.33135 3.12319,0.88171 5.60171,1.22065 4.71647,0.64621 6.44968,1.30058 8.4566,3.19492 1.30188,1.22891 1.40618,1.56299 0.79026,2.53129 -0.30305,0.47623 -1.31062,0.43712 -4.14898,-0.16151 -7.71275,-1.62697 -10.57268,-1.86076 -15.12067,-1.2365 -4.24349,0.58288 -4.50649,0.55435 -7.45845,-0.79723 -2.63511,-1.20639 -3.17868,-1.29794 -3.9158,-0.65994 -1.60702,1.39085 -3.71671,1.51111 -6.31859,0.35988 -2.01964,-0.89334 -2.82186,-0.99468 -4.40394,-0.5554 -2.6246,0.72858 -5.81384,0.64304 -8.2373,-0.22164 -1.10635,-0.39499 -2.01155,-0.51213 -2.01155,-0.26201 0,0.25148 -0.33767,0.32653 -0.75034,0.16897 -0.41263,-0.15844 -0.91211,-0.0219 -1.10989,0.29361 -0.19776,0.31994 -0.55203,0.46249 -0.7874,0.31775 -0.23537,-0.14571 -2.45148,0.0952 -4.92475,0.53008 -3.46182,0.61246 -5.42283,0.67368 -8.51994,0.26596 -4.17222,-0.54803 -5.79004,-0.58814 -21.456466,-0.53429 -5.648905,0.0219 -11.40702,-0.27562 -14.45913,-0.74127 -3.090872,-0.47197 -5.542673,-0.59446 -6.277144,-0.31556 -1.184108,0.44986 -2.865845,3.00669 -2.865845,4.35638 0,0.37787 -0.451621,1.89833 -1.003658,3.37915 -0.552042,1.48083 -1.540655,4.38214 -2.19704,6.44729 -0.656368,2.0652 -1.532377,4.5156 -1.94665,5.44523 -0.414215,0.9292 -0.753193,1.97058 -0.753193,2.31312 0,1.08338 -1.717594,5.92388 -2.210048,6.2282 -0.259642,0.16063 -0.471998,0.87956 -0.471998,1.59897 0,1.178 -1.518101,6.3402 -2.673001,9.08943 -0.487417,1.16036 -1.495902,5.89557 -2.170567,10.19182 -0.231685,1.47516 -0.676323,4.13039 -0.988139,5.90052 -1.437763,8.1616 -1.630871,10.94463 -1.489955,21.4735 0.120165,8.98107 0.327141,11.65302 1.026677,13.25919 l 0.876106,2.01152 3.916354,0.009 c 2.482817,0.009 5.094445,0.41079 7.134826,1.09913 3.89175,1.31304 14.801005,1.94174 17.22811,0.99257 0.850445,-0.33267 4.925695,-0.72016 9.056069,-0.86165 9.822806,-0.33706 9.100084,-0.3454 13.410293,0.1501 3.597519,0.41386 7.368599,0.51423 9.655409,0.2585 0.59006,-0.0632 2.40044,0.0219 4.02309,0.18257 2.37144,0.2427 21.3753,0.37261 30.03907,0.20584 1.03259,-0.022 3.63261,0.15185 5.77781,0.38094 4.98465,0.53434 26.60203,-0.68842 28.91343,-1.63548 2.10553,-0.86271 3.13423,-0.21549 3.65476,2.2985 0.29229,1.41148 0.1741,1.80165 -0.62036,2.04738 -0.53979,0.16677 -2.27706,0.92393 -3.86059,1.68144 -2.54965,1.22013 -3.33296,1.34358 -6.84439,1.07802 -2.18089,-0.16458 -6.31643,-0.0737 -9.19011,0.20803 -2.87369,0.27869 -7.88011,0.53749 -11.1254,0.57234 -4.77335,0.0527 -6.22946,0.2607 -7.62234,1.09075 -1.63233,0.97252 -1.89712,0.98204 -5.09591,0.18784 -3.22749,-0.80144 -6.00263,-0.80991 -9.09058,-0.0307 -0.84084,0.2133 -1.94053,0.0737 -2.68206,-0.34189 -0.69131,-0.38665 -3.36676,-0.84054 -5.94549,-1.00947 -3.49755,-0.22821 -4.8602,-0.53429 -5.36412,-1.20323 -0.55341,-0.73495 -1.06323,-0.80991 -2.82116,-0.41387 -3.67171,0.82681 -7.93071,0.79618 -9.57543,-0.0632 -1.216002,-0.63884 -2.143352,-0.698 -4.527364,-0.28703 -2.097159,0.3612 -3.503542,0.33355 -4.679961,-0.0952 -0.957409,-0.34628 -4.37921,-0.56914 -7.944109,-0.5174 -3.44425,0.0527 -6.423765,-0.0737 -6.621138,-0.26815 -0.197364,-0.1975 -0.791314,0.0307 -1.319963,0.51108 -0.640845,0.57967 -1.54909,0.78243 -2.725597,0.60609 -0.970505,-0.14483 -2.290877,-0.0632 -2.934245,0.17643 -2.310244,0.86903 -12.629349,0.98836 -16.432805,0.19003 -2.010709,-0.4222 -5.583138,-0.76769 -7.938715,-0.76769 -4.649995,0 -6.401198,-0.61241 -9.518069,-3.32772 -1.17304,-1.02215 -2.108996,-1.44286 -2.682055,-1.20578 -2.012105,0.83208 -2.579836,0.79196 -3.524017,-0.25148 -1.718533,-1.89899 -2.310859,-5.99506 -1.585359,-10.96332 0.797226,-5.45976 2.216825,-10.50793 3.301983,-11.74242 0.453837,-0.51634 0.678645,-0.93872 0.49956,-0.93872 -0.369362,0 0.213954,-1.90246 3.330812,-10.86374 1.205995,-3.46724 2.192717,-6.61529 2.192717,-6.99562 0,-0.38007 0.850129,-3.67303 1.889099,-7.31728 1.039036,-3.64433 1.754934,-7.04872 1.590946,-7.56542 -0.179414,-0.56488 -1.091912,-1.08767 -2.291408,-1.31177 -2.511554,-0.46986 -3.334284,-1.14631 -3.334284,-2.7437 0,-0.79301 -0.548868,-1.61166 -1.47513,-2.20002 -2.05712,-1.30672 -4.42376,-3.53896 -4.433771,-4.18183 -0.0048,-0.2958 -0.986976,-1.62443 -2.183132,-2.95204 -4.131155,-4.58525 -6.551479,-7.78569 -7.504885,-9.92361 -1.5131276,-3.39294 -4.3744306,-7.06409 -6.1230886,-7.85592 -1.794298,-0.81201 -1.887019,-1.05928 -3.397737,-9.04107 -0.586356,-3.09779 -1.22303945,-6.12027 -1.41494385,-6.71667 -0.2378995,-0.73911 0.1445584,-1.7635 1.20140385,-3.21844 z m 9.8381806,12.2718 c 0.544756,0.58499 1.404808,2.16899 1.911127,3.52048 0.506318,1.35149 1.349351,3.1814 1.873396,4.06649 0.524058,0.88487 1.422095,2.45409 1.995672,3.48669 0.573582,1.03268 2.269477,3.24381 3.768662,4.91375 1.499176,1.66985 2.725776,3.28721 2.725776,3.59408 0,0.30721 0.303135,0.75074 0.673682,0.98726 0.370503,0.23568 1.348359,1.33419 2.172954,2.44048 0.824577,1.10637 1.773147,2.01152 2.107898,2.01152 0.334735,0 1.146475,0.50476 1.803812,1.12287 0.657316,0.61773 1.985227,1.16058 2.950878,1.20693 1.594611,0.0742 1.791791,-0.0843 2.148719,-1.77892 0.216149,-1.02426 0.653831,-1.94999 0.972722,-2.0562 0.318802,-0.10664 0.579703,-0.95877 0.579703,-1.89539 0,-0.93661 0.249943,-2.54551 0.555311,-3.57613 0.305505,-1.03058 0.633243,-3.09292 0.728274,-4.5827 0.09502,-1.48991 0.499986,-3.30034 0.899652,-4.02308 0.399689,-0.72332 0.638312,-1.5557 0.530291,-1.85076 -0.108009,-0.29449 -0.144962,-2.77127 -0.08238,-5.50286 0.100328,-4.36436 -0.0036,-5.00951 -0.856357,-5.32134 -0.533669,-0.1953 -1.631366,-0.89966 -2.439271,-1.56469 -0.807891,-0.66522 -2.859665,-1.60319 -4.559497,-2.08407 -1.699824,-0.48044 -3.917126,-1.25423 -4.927324,-1.71866 -1.010206,-0.4646 -3.227298,-1.00837 -4.92688,-1.20859 -2.308471,-0.27254 -3.345331,-0.67899 -4.098989,-1.61029 -0.946639,-1.169 -1.130793,-1.20175 -2.985203,-0.53114 -1.476666,0.5343 -1.976349,1.01895 -1.976349,1.91629 0,0.66104 -0.210224,1.33152 -0.467144,1.49035 -0.256921,0.15843 -0.612335,1.01473 -0.78973,1.90153 -0.177396,0.88698 -0.798175,2.02017 -1.379507,2.51786 -1.1519856,0.98621 -0.8808546,2.01345 1.089942,4.12877 z m 16.128087,91.41322 c 0.349173,-0.11631 1.112662,-1.13214 1.696518,-2.25725 0.81634,-1.573 0.926367,-2.26199 0.47633,-2.98268 -0.321831,-0.51529 -0.403594,-1.14916 -0.181433,-1.40828 0.222074,-0.2585 0.233353,-1.19533 0.02546,-2.08042 -0.288169,-1.22422 -0.393983,-1.32801 -0.442224,-0.43406 -0.03467,0.64621 -0.311298,1.32836 -0.61413,1.51559 -0.302828,0.18696 -0.506209,0.62404 -0.451832,0.97036 0.05385,0.34628 -0.04964,0.99258 -0.230939,1.4347 -0.287335,0.70116 -0.539792,2.13933 -0.831858,4.73838 -0.04433,0.39367 0.205352,0.61983 0.554574,0.5037 z m 1.510666,-11.14248 c 0.295015,0 0.532713,-0.4222 0.528175,-0.93872 -0.007,-0.80249 -0.08343,-0.82149 -0.528175,-0.13429 -0.654257,1.01262 -0.654257,1.0728 0,1.0728 z m 10.191821,-51.76374 c 0.295015,0.18257 0.536412,0.0737 0.536412,-0.23656 0,-0.31248 -0.241384,-0.56809 -0.536412,-0.56809 -0.295016,0 -0.536413,0.10665 -0.536413,0.23656 0,0.12991 0.241384,0.38534 0.536413,0.56809 z m 11.801059,-26.82056 c 0.295016,0.18258 0.536413,0.0737 0.536413,-0.23655 0,-0.31249 -0.241384,-0.56809 -0.536413,-0.56809 -0.295015,0 -0.536413,0.10665 -0.536413,0.23656 0,0.12991 0.241385,0.38533 0.536413,0.56808 z M 237.2973,60.563241 c 0.42796,-0.17108 0.30086,-0.29883 -0.32406,-0.32416 -0.56545,-0.0211 -0.88234,0.1056 -0.7041,0.28194 0.17823,0.17845 0.64095,0.19745 1.02816,0.0421 z m 55.64916,-26.4054 c 0.27452,0.17002 0.6515,0.0634 0.83629,-0.23651 0.18477,-0.29989 -0.0421,-0.54486 -0.49945,-0.54486 -0.94189,0 -1.08096,0.32205 -0.33684,0.78139 z m 4.83319,2.97318 c 0.63251,0 1.30988,-1.04642 0.92605,-1.43036 -0.38437,-0.38437 -1.43036,0.29247 -1.43036,0.92605 0,0.27772 0.22703,0.50473 0.50474,0.50473 z m 5.59822,-5.36411 c 0.40654,0 1.03903,-0.36221 1.40682,-0.80463 0.56491,-0.68001 0.45087,-0.80461 -0.73916,-0.80461 -0.89331,0 -1.40671,0.29356 -1.40671,0.80461 0,0.44244 0.33263,0.80463 0.73916,0.80463 z m 11.00056,-5.36412 c 0.55648,0 1.7615,-0.31573 2.67847,-0.70114 1.2914,-0.54275 1.52286,-0.84475 1.02742,-1.34103 -0.8553,-0.8553 -1.76436,-0.80779 -2.54469,0.13307 -0.35268,0.42554 -0.98623,0.64095 -1.4067,0.47939 -0.46778,-0.1795 -0.76555,0.0421 -0.76555,0.56809 0,0.48678 0.44032,0.86164 1.01158,0.86164 z m 4.49118,-3.47338 c 1.42424,0.65151 2.89198,0.44877 3.23251,-0.44666 0.16472,-0.43396 -0.51001,-0.64411 -2.09992,-0.65362 -2.61258,-0.0105 -2.92038,0.28299 -1.13259,1.10028 z m 10.12234,0.10876 c 0.37485,0.37484 0.93661,0.42764 1.47513,0.13938 0.47834,-0.25551 1.51685,-0.60082 2.30753,-0.7666 0.79089,-0.16576 1.78747,-0.65151 2.21502,-1.07873 0.42764,-0.42765 1.41632,-0.937667 2.19728,-1.133755 1.72507,-0.432911 2.66897,-2.027276 2.23171,-3.769666 -0.17845,-0.71064 -0.0845,-1.291081 0.20592,-1.291081 0.29146,0 0.39069,-0.362208 0.22071,-0.804621 -0.17002,-0.442431 -0.64517,-0.804617 -1.05603,-0.804617 -0.41075,0 -0.7476,-0.362165 -0.7476,-0.804617 0,-1.189081 -1.4821,-0.977791 -1.87744,0.268199 -0.18692,0.590268 -0.68635,1.072826 -1.10904,1.072826 -1.15825,0 -0.92183,0.951392 0.33473,1.350847 0.98835,0.313624 2.11492,2.183663 2.11492,3.511812 0,0.275573 -1.08623,0.501565 -2.41385,0.501565 -1.57133,0 -2.41533,0.234406 -2.41808,0.670513 -0.005,0.858475 -2.5185,2.039105 -3.52184,1.654115 -0.91338,-0.35058 -1.01158,0.43291 -0.1605,1.28454 z M 339.4391,12.846873 c 0.17845,-0.178449 0.19746,-0.64095 0.0421,-1.028477 -0.17108,-0.427645 -0.29884,-0.30094 -0.32416,0.324157 -0.0211,0.565976 0.10559,0.882756 0.28194,0.704307 z m 2.89441,3.900071 c 0.29462,0 0.53641,-0.106648 0.53641,-0.236513 0,-0.129864 -0.24182,-0.385424 -0.53641,-0.568086 -0.29462,-0.182662 -0.53642,-0.07391 -0.53642,0.236512 0,0.312571 0.24183,0.568092 0.53642,0.568087 z M 142.44259,235.60339 c 1.17844,0 2.49518,1.51199 2.13476,2.45123 -0.27044,0.70427 -0.4606,0.71169 -1.45235,0.0527 -1.37844,-0.9134 -1.81202,-2.50574 -0.68244,-2.50574 z m 2.15884,42.91293 c 1.10617,0 5.16037,-5.65146 5.16037,-7.19342 0,-0.84261 0.52173,-1.69614 1.40791,-2.30276 1.71024,-1.17072 20.17309,-19.61418 21.5101,-21.4875 0.52374,-0.7339 1.55577,-2.23807 2.29334,-3.34247 0.73757,-1.10448 2.18588,-3.08353 3.21847,-4.39793 5.21921,-6.64369 7.01637,-9.30387 7.59886,-11.24807 0.41605,-1.38866 1.14208,-2.39146 2.08397,-2.87857 0.79501,-0.41079 1.57423,-1.23988 1.73163,-1.84176 0.72056,-2.75534 3.08116,0.10884 3.05459,3.70621 -0.0224,3.02757 -1.53517,5.51058 -6.51124,10.6874 -2.55632,2.65944 -4.78883,5.27942 -4.96111,5.82227 -0.17235,0.54272 -1.06007,1.42812 -1.97283,1.96728 -0.91274,0.53961 -2.32862,2.03531 -3.14635,3.32483 -0.81771,1.28939 -4.35582,5.22356 -7.86242,8.74254 -3.50662,3.51912 -6.74449,7.02068 -7.19528,7.78135 -0.45078,0.76027 -2.44222,3.0583 -4.4254,5.10576 -2.023,2.08859 -3.60577,4.19675 -3.60577,4.80254 0,0.59345 -0.24604,1.23176 -0.54665,1.41758 -0.30064,0.18565 -1.14956,1.52774 -1.88648,2.98197 -0.73693,1.45423 -1.68948,2.64404 -2.11678,2.64404 -0.88096,0 -4.56913,-3.07572 -4.56913,-3.8104 0,-0.26377 0.33302,-0.48049 0.7402,-0.48049 z m 33.55003,-56.05556 c 0.54434,-2.26774 4.2063,-7.18921 5.61175,-7.54185 0.64654,-0.16282 1.82982,-0.0439 2.62963,0.25762 2.50889,0.95352 1.91838,2.67476 -2.38609,6.95371 -2.11216,2.09961 -4.11566,3.81752 -4.45222,3.81752 -0.65721,0 -1.93491,-1.09615 -1.84441,-1.58243 0.0307,-0.16239 0.22883,-1.01895 0.44138,-1.90479 z m 107.5976,3.14221 c 0.8818,-0.33794 2.40702,0.66526 2.40702,1.58309 0,0.31336 0.44697,1.06858 0.9931,1.67762 0.98623,1.1004 2.33423,4.51094 3.40452,8.61715 0.30726,1.18011 1.01158,3.23187 1.5632,4.55949 1.41431,3.39987 2.14607,7.12719 1.52223,7.75115 -0.78667,0.78665 -0.60294,1.51844 0.29462,1.17387 0.56598,-0.21768 0.80462,0.0439 0.80462,0.88171 3.1e-4,0.65468 0.74759,2.75903 1.66013,4.67671 2.44194,5.12999 3.63102,15.12373 1.92812,16.2065 -2.40403,1.52844 -4.4387,-2.06265 -5.28956,-9.33578 -0.48045,-4.11042 -0.98624,-5.79937 -2.8602,-9.5528 -2.0805,-4.16743 -3.80451,-9.76132 -3.27897,-10.6389 0.25766,-0.43098 -0.77411,-5.06688 -2.58801,-11.62217 -1.59613,-5.76842 -1.57908,-5.58681 -0.56144,-5.97729 z m 30.81187,-109.9079 c 0.24393,-0.60082 0.6156,-3.73926 0.82679,-6.97337 0.21119,-3.23406 0.71698,-7.32855 1.12425,-9.098689 0.40759,-1.77018 0.74443,-4.3493 0.74865,-5.73151 0.004,-1.38221 0.25657,-3.16661 0.55964,-3.96552 0.3041,-0.79828 0.64201,-3.77157 0.75077,-6.60589 0.10981,-2.83443 0.36747,-6.36736 0.57337,-7.85084 0.31151,-2.23645 0.16576,-3.09819 -0.84791,-5.04353 -2.45884,-4.71757 -1.94661,-8.39833 2.99155,-21.49364 3.45595,-9.16451 3.36313,-9.01172 5.47214,-9.01172 1.59223,0 1.82792,0.15524 1.5935,1.05171 -0.15629,0.59871 0.0316,1.16986 0.43926,1.32593 1.54451,0.59237 2.04946,3.34212 1.72909,9.41455 -0.27242,5.15842 -0.17108,6.29249 0.76977,8.68005 1.08824,2.76104 1.09489,4.54683 0.0316,7.58178 -0.31152,0.88487 -0.85952,2.92503 -1.21738,4.53331 -0.35795,1.60818 -1.25233,4.26342 -1.98673,5.90053 -0.73493,1.63701 -1.68537,4.66615 -2.11312,6.73134 -0.42765,2.06518 -1.10345,5.20319 -1.50153,6.97333 -1.72846,7.68739 -2.35114,11.119779 -2.65208,14.619459 -0.35163,4.08654 -2.01302,10.50943 -3.03864,11.74518 -1.36606,1.64611 -2.53254,1.87977 -3.6758,0.73601 -1.16479,-1.16479 -1.26912,-1.80451 -0.57442,-3.5193 z m 8.92091,-54.961929 c 0.94716,0 0.78244,-1.15477 -0.21225,-1.48622 -0.35057,-0.11723 -0.63672,0.17002 -0.63672,0.63672 0,0.46672 0.38226,0.84897 0.84897,0.84897 z m 5.30319,155.223199 c 0.47727,-0.18258 1.76234,-0.15317 2.85576,0.0632 1.09352,0.21944 3.55721,0.58498 5.47488,0.81307 1.91767,0.22821 4.45222,0.66731 5.63232,0.97567 1.18011,0.30853 5.64574,0.72543 9.92362,0.92709 8.3204,0.39061 8.3298,0.39061 19.31083,-0.24402 3.98285,-0.22997 10.01748,-0.22909 13.41029,0.002 8.11302,0.55225 31.97457,0.51845 36.74419,-0.0527 2.0652,-0.24709 6.77223,-0.97884 10.46006,-1.62562 8.90431,-1.56171 13.73296,-1.90794 14.75713,-1.05805 1.17651,0.97673 1.00416,1.38994 -1.12783,2.70763 -1.50734,0.9313 -3.75428,1.40407 -10.32594,2.17118 -4.61961,0.53961 -9.72691,0.99258 -11.34953,1.00737 -1.62268,0.009 -4.2779,0.32433 -5.90053,0.68847 -1.9898,0.44665 -6.61753,0.60504 -14.21494,0.48571 -12.70979,-0.19838 -13.07683,-0.19969 -35.99322,-0.0843 -10.71293,0.0527 -17.46717,-0.12991 -18.87557,-0.50897 -1.20619,-0.32521 -4.92358,-0.7001 -8.26074,-0.83312 -3.33716,-0.1343 -7.01454,-0.47413 -8.17173,-0.75712 -3.73524,-0.91335 -6.47601,-3.86056 -4.34905,-4.67679 z m 14.93685,-96.13544 c 1.17799,-0.97778 8.17975,-1.47766 13.22181,-0.94399 2.70983,0.28703 5.95343,0.28308 8.04617,-0.009 1.92844,-0.27035 6.76502,-0.3612 10.74788,-0.20277 10.81545,0.43098 55.41756,-0.15624 60.61452,-0.79722 1.32761,-0.16371 3.4905,-0.28615 4.80639,-0.27255 1.31599,0.009 3.51074,-0.377 4.87733,-0.86797 1.80608,-0.64941 3.05702,-0.77296 4.58072,-0.45297 1.15285,0.2427 4.63067,0.49098 7.72847,0.5533 7.28967,0.14571 13.90711,0.88276 15.38548,1.71545 1.65602,0.9324 1.99519,2.36688 1.94125,8.21185 -0.0439,4.05806 -0.28527,5.62925 -1.17738,7.47641 -0.62194,1.28623 -1.12986,2.86071 -1.12986,3.49893 0,0.63778 -0.63141,3.67049 -1.40371,6.73848 -1.06398,4.22752 -1.45564,7.33146 -1.61771,12.81961 -0.11806,3.98289 -0.30722,8.20711 -0.42221,9.38722 -0.3296,3.39596 -1.85822,12.12968 -2.53453,14.48314 -0.96299,3.34979 -5.71321,12.98528 -6.5628,13.31133 -1.984,0.76132 -1.72168,-6.42521 0.35286,-9.65616 0.22471,-0.34935 0.63462,-2.28091 0.91125,-4.29129 0.27649,-2.01029 0.76448,-5.3449 1.08307,-7.4101 0.31906,-2.06515 0.4488,-4.28259 0.28922,-4.92757 -0.15931,-0.6452 -0.0527,-2.33476 0.23568,-3.75489 0.49418,-2.42442 0.72858,-4.48465 1.38379,-12.16629 0.1479,-1.73099 0.47201,-3.54137 0.72121,-4.02308 0.24928,-0.48154 0.61452,-1.99085 0.81197,-3.35366 0.1975,-1.36277 0.92398,-4.0352 1.61442,-5.93876 0.69058,-1.90342 1.43312,-4.5299 1.65033,-5.83654 0.21768,-1.30659 0.70005,-2.97916 1.07218,-3.71674 1.06235,-2.10395 0.96514,-6.31501 -0.15317,-6.66357 -1.21662,-0.37919 -8.28088,-1.47003 -8.9647,-1.38462 -0.29449,0.0439 -4.51928,0.14044 -9.38721,0.22909 -4.86793,0.0843 -9.51098,0.42967 -10.31769,0.75606 -0.80675,0.32609 -4.5482,0.72117 -8.31437,0.87746 -9.22513,0.38314 -15.26294,0.82044 -15.78446,1.14262 -0.49102,0.30415 -6.03316,0.2765 -11.17851,-0.0527 -1.91764,-0.12333 -7.16941,-0.3476 -11.67063,-0.49734 -4.5011,-0.1501 -8.61321,-0.50261 -9.138,-0.78349 -1.05741,-0.56598 -24.76248,-0.43493 -26.93199,0.14878 -0.7381,0.19837 -4.19183,0.15097 -7.67597,-0.10577 -5.22146,-0.38314 -6.523,-0.65363 -7.40491,-1.53573 -0.91233,-0.91235 -0.95773,-1.16334 -0.30621,-1.70387 z m 102.35474,86.58816 c 2.08907,-0.88697 3.20953,-0.30502 2.27757,1.18169 -0.77085,1.229 -2.54209,1.44523 -3.39738,0.41474 -0.58814,-0.70853 -0.42439,-0.94083 1.11981,-1.59643 z m 3.49195,-3.69089 c 0.42879,-0.42879 1.2663,0.0527 1.2663,0.7328 0,0.27781 -0.36208,0.50475 -0.80464,0.50475 -0.82997,0 -1.06574,-0.63251 -0.46144,-1.23703 z" />
</svg>
