<?xml version="1.0" encoding="utf-8"?>
<svg xmlns="http://www.w3.org/2000/svg" version="1.1" viewBox="0 0 484 237">
	<title>A crude stick figure drawing of Henry VIII.</title>
	<path d="m 482.48296,78.090274 c -0.70163,0.89114 -1.27521,1.91822 -1.27521,2.28147 0,0.36256 -0.50206,1.03548 -1.11585,1.49347 -0.61374,0.45812 -1.61172,1.83738 -2.21783,3.06478 -2.63163,5.32858 -4.11945,7.2074 -6.87396,8.68015 -2.04891,1.09577 -3.0033,2.06912 -3.35561,3.42314 -0.27246,1.04553 -1.53244,2.68424 -2.81579,3.661636 -1.27787,0.9727 -2.96013,2.36891 -3.73843,3.10181 -0.77817,0.73298 -3.09756,2.2719 -5.15432,3.42022 -2.05668,1.14846 -5.24898,3.24002 -7.09391,4.64841 -2.96678,2.26464 -3.65008,2.52093 -5.91121,2.2177 -2.65613,-0.35656 -4.44292,0.6213 -4.44292,2.43169 0,1.0744 -1.47266,1.90319 -4.46326,2.51192 -1.22753,0.24972 -3.23585,1.1158 -4.46326,1.92439 -1.22753,0.80829 -2.94897,1.67407 -3.82566,1.92324 -1.96391,0.55852 -5.66569,3.9539 -6.42202,5.89134 -0.72045,1.84531 -3.46206,1.94421 -4.41735,0.15919 -0.37543,-0.70163 -1.09696,-1.27521 -1.60417,-1.27521 -0.72548,0 -0.83845,0.60997 -0.5284,2.86925 0.25615,1.87128 0.15446,2.86921 -0.29478,2.86921 -0.37887,0 -1.19612,0.86103 -1.81819,1.91285 -1.46361,2.47777 -3.03741,2.57491 -2.58191,0.15919 0.18193,-0.96395 0.74552,-2.90113 1.25388,-4.30386 0.7217,-1.99343 0.80829,-3.8735 0.39518,-8.60772 -0.59495,-6.83195 -0.12572,-8.5564 3.21818,-11.75286 1.82883,-1.75002 1.89298,-1.96314 1.00034,-3.32497 -1.03926,-1.58599 -1.30173,-7.25259 -0.38145,-8.226796 0.49579,-0.52467 1.22753,-4.31879 1.40903,-7.30063 0.0386,-0.52592 -0.15446,-2.47112 -0.41534,-4.32244 -0.40547,-2.88028 -0.82588,-3.64553 -2.91967,-5.30369 l -2.44679,-1.93782 -6.69765,0.44808 c -4.57156,0.30636 -6.96686,0.22484 -7.54585,-0.25487 -0.46692,-0.38788 -4.12931,-1.00158 -8.13958,-1.36595 -9.4641,-0.85978 -11.26874,-0.90122 -14.13045,-0.3291 -2.17452,0.43431 -2.43007,0.33253 -3.01283,-1.1999 -0.35017,-0.92126 -0.90746,-1.67497 -1.23882,-1.67497 -1.29894,0 -2.61834,0.81584 -2.61834,1.61923 0,1.42963 -1.16351,1.5475 -16.25903,1.64876 -1.0518,0.009 -2.80548,-0.17807 -3.89669,-0.41148 l -1.98375,-0.42436 1.66494,-1.69406 c 1.78116,-1.81202 2.56035,-1.89861 13.77964,-1.52999 2.45479,0.0751 5.86274,-0.0257 7.57324,-0.23856 2.2,-0.27247 2.98182,-0.17807 2.67218,0.32266 -0.55351,0.89492 -1.2e-4,0.89994 1.65402,0.0129 0.71166,-0.38144 3.92117,-0.95516 7.13118,-1.27606 4.65769,-0.46567 7.02714,-0.36643 11.73402,0.49073 3.90851,0.71166 5.89786,1.35746 5.89786,1.91371 0,1.00789 1.033,1.11078 1.61877,0.16176 0.23727,-0.38274 2.26125,-0.64138 4.66033,-0.59371 2.33278,0.0502 5.96304,-0.088 8.06713,-0.28877 7.19607,-0.70033 10.29337,2.6461 9.7046,10.48655 -0.86231,11.48902 -2.55444,23.953636 -3.30867,24.379536 -0.45688,0.25873 -1.02295,1.49258 -1.25753,2.74332 -0.2347,1.25015 -0.77065,2.40637 -1.19239,2.56805 -1.05179,0.4029 -0.57483,5.74649 0.59997,6.72112 1.16978,0.97147 5.97493,-0.33124 5.97493,-1.62052 0,-0.47442 0.64515,-0.88736 1.43465,-0.91624 0.78949,-0.0257 2.59361,-0.22698 4.01016,-0.44057 2.49596,-0.3763 2.56761,-0.45559 2.32149,-2.5635 -0.24843,-2.13043 -0.21324,-2.16725 1.72831,-1.77889 1.56753,0.31365 1.98236,0.17935 1.98236,-0.64014 0,-0.73423 0.60375,-1.04925 2.07225,-1.08315 1.13966,-0.0257 2.93301,-0.59619 3.98506,-1.26821 1.05179,-0.6715 2.34321,-1.39333 2.86925,-1.60319 6.78047,-2.70582 12.2923,-6.07837 16.52386,-10.11071 10.08553,-9.610596 11.59569,-11.409356 13.95208,-16.617536 1.53531,-3.39336 1.56478,-3.66874 0.60748,-5.67723 -0.79825,-1.67446 -1.49785,-2.19072 -3.38221,-2.49648 -1.30657,-0.21196 -2.95662,-0.0751 -3.66665,0.30507 -0.75933,0.40677 -3.01569,0.55226 -5.47737,0.35528 -3.49544,-0.27976 -4.47849,-0.12787 -5.95489,0.92379 -0.97275,0.69282 -2.84299,1.31035 -4.15638,1.37299 -1.31348,0.0626 -2.59285,0.40033 -2.843,0.75182 -0.24972,0.35013 -2.88693,0.63761 -5.85925,0.63761 h -5.40408 l -2.29039,-2.55046 c -1.3621,-1.51681 -2.17729,-3.00265 -2.01124,-3.66621 0.19094,-0.76062 -0.1004,-1.11585 -0.89865,-1.11585 -1.82811,0 -2.17845,-1.27095 -0.74556,-2.70419 l 1.30018,-1.30017 1.48695,1.57444 c 3.74182,3.96197 9.64762,5.15183 15.45486,3.11399 2.07127,-0.72672 4.55054,-1.32167 5.50917,-1.32167 0.95894,0 4.57225,-0.74054 8.02976,-1.64511 9.20756,-2.40937 18.17874,-2.05491 21.4297,0.84721 1.49674,1.33587 1.41667,4.70701 -0.15918,6.71074 z m -76.33851,69.006646 c -0.14932,1.05179 -0.5372,2.18531 -0.86102,2.51853 -0.32395,0.33253 -0.59371,1.05059 -0.59998,1.59405 -0.009,0.54346 -1.88547,4.71504 -4.17543,9.27016 -4.22719,8.40855 -5.31639,11.44621 -5.68355,15.85227 -0.26474,3.18038 -1.02793,3.93031 -2.96549,2.91744 -0.8309,-0.43431 -1.94018,-0.98905 -2.46623,-1.23255 -1.70233,-0.7895 -1.531,-4.34038 0.34026,-7.03967 0.93756,-1.35291 3.0979,-6.09155 4.80102,-10.53035 1.70308,-4.43893 3.5066,-8.39786 4.00776,-8.79763 0.50081,-0.39904 1.09448,-1.77301 1.31764,-3.05187 0.28619,-1.63871 1.24384,-3.0973 3.24478,-4.94146 1.56126,-1.43902 2.98836,-2.61636 3.17162,-2.61636 0.36385,0 0.29863,3.04235 -0.13044,6.05731 z m -32.1822,44.18632 c -0.95516,0.95516 -5.57042,0.99532 -7.96046,0.0751 -0.98653,-0.38274 -4.37728,-0.82211 -7.53345,-0.97902 -3.15616,-0.15575 -7.89041,-0.43302 -10.52055,-0.61503 -2.63014,-0.18193 -8.17482,-0.30507 -12.32154,-0.27246 -4.14672,0.0386 -8.45059,-0.236 -9.56414,-0.59745 -7.71834,-2.50338 -7.56007,-2.48356 -12.19076,-1.52411 -3.45489,0.7154 -5.37274,0.77062 -8.72985,0.24972 -2.36618,-0.36771 -6.60365,-0.66772 -9.41641,-0.66772 -3.43292,0 -6.22259,-0.40032 -8.4856,-1.21874 -1.98336,-0.71668 -6.78401,-1.50531 -11.66034,-1.91559 -14.55933,-1.22501 -15.89693,-1.44894 -19.79776,-3.31056 -1.95776,-0.93383 -2.73608,-3.27078 -1.64662,-4.94296 0.64891,-0.99532 3.68759,-0.26217 7.89682,1.90603 1.53164,0.78825 3.48212,1.19115 5.41968,1.1158 1.66494,-0.0626 5.17894,0.22741 7.80908,0.64769 2.63014,0.4192 5.92976,0.88612 7.3325,1.03548 1.40274,0.1506 3.26775,0.45687 4.14446,0.68154 2.10298,0.53968 4.85587,0.80953 11.79577,1.15472 3.15617,0.15704 7.89042,0.57483 10.52055,0.92877 3.13885,0.42178 6.34095,0.43053 9.31876,0.0257 3.27465,-0.44559 5.40311,-0.40161 7.65131,0.15576 1.94759,0.48322 8.84846,0.80326 18.41724,0.85347 9.30282,0.0502 17.51631,0.42177 20.94847,0.94889 4.91989,0.75684 5.8827,1.12082 7.4889,2.83471 2.09018,2.22977 2.13737,2.37926 1.08444,3.4328 z M 339.23426,77.392304 c -2.04575,0.0626 -4.29332,0.0386 -4.99469,-0.0502 -0.70162,-0.088 -4.28792,-0.24114 -7.97011,-0.34154 -3.68219,-0.10041 -7.89381,-0.22226 -9.35918,-0.27247 -1.46537,-0.0502 -3.07144,-0.49828 -3.56898,-0.99656 -0.49703,-0.49704 -1.71539,-0.9991 -2.7062,-1.11581 -2.25083,-0.26345 -2.93852,-1.80515 -0.80579,-1.80515 0.83592,0 1.86388,0.34412 2.28472,0.76564 0.53218,0.53218 0.76563,0.54724 0.76563,0.0502 0,-0.39174 -0.35896,-0.83969 -0.79701,-0.99656 -1.49612,-0.53471 0.23097,-1.38655 2.81051,-1.38655 1.75681,0 2.84426,0.37029 3.42576,1.16476 0.46817,0.64138 1.17481,0.9652 1.56943,0.7217 0.3941,-0.24371 2.55583,0.0502 4.80277,0.6627 3.31645,0.89741 4.71768,0.98026 7.44371,0.44182 2.96539,-0.58616 3.56509,-0.51712 5.12523,0.59366 0.99658,0.70918 2.50625,1.16854 3.46204,1.05308 0.95014,-0.11285 1.81292,0.14545 1.96328,0.59242 0.19206,0.56981 -0.7945,0.82965 -3.45112,0.91122 z M 310.20924,8.0980939 c -0.34893,1.40277 -1.06812,4.0625101 -1.59616,5.9105701 -0.52841,1.84806 -0.78321,3.82175 -0.56732,4.38607 0.21715,0.56483 0.11297,1.92139 -0.23346,3.01595 -0.88362,2.80361 -2.53751,10.48315 -2.84288,13.20545 -0.32636,2.91379 -4.02937,10.30891 -4.99946,9.98547 -1.40187,-0.46692 -0.80706,-11.82915 0.80831,-15.46241 0.31253,-0.70162 0.70664,-2.8533 0.87859,-4.78206 0.44181,-4.97849 2.03596,-15.0938901 2.92735,-18.5714801 0.77568,-3.02664 4.03577,-6.36581001 5.12033,-5.24473001 0.9037,0.93383001 1.16728,4.89478001 0.50457,7.55717001 z m -4.05635,63.9776901 c -0.7192,0.0502 -1.619,0.41406 -2.00019,0.79452 -0.49954,0.49953 -0.82086,0.48695 -1.14719,-0.0386 -0.68029,-1.10199 -0.0502,-1.40701 2.32162,-1.11709 1.17356,0.14417 1.54533,0.30765 0.82588,0.36386 z M 216.79698,234.28995 c -0.1594,0.61378 -0.43051,1.11584 -0.60372,1.11584 -1.19991,0 -3.08613,-1.8142 -5.00422,-4.81269 -2.21105,-3.45627 -2.84402,-6.21555 -1.60206,-6.98308 1.17606,-0.72672 0.65267,-3.23285 -1.32869,-6.35779 -1.75821,-2.77245 -2.02137,-3.84483 -2.48675,-10.13371 -0.31104,-4.20294 -0.28027,-7.66488 0.0765,-8.60296 0.32824,-0.86351 0.55351,-2.02604 0.50054,-2.58383 -0.18351,-1.93238 0.0565,-2.56624 1.20079,-3.17887 1.94233,-1.03926 2.93439,0.17205 2.76821,3.38148 -0.0879,1.59713 0.21586,3.55491 0.66396,4.35041 1.02043,1.81481 1.19615,3.77558 0.42174,4.73302 -0.3276,0.40547 -0.44181,1.40899 -0.25354,2.23161 0.18828,0.8221 0.45561,3.67303 0.59493,6.33431 0.13932,2.66124 0.55603,5.38701 0.92629,6.05727 0.55979,1.01415 3.76165,10.54228 4.26647,12.69558 0.0879,0.35012 0.0253,1.13966 -0.14057,1.75341 z M 171.09543,54.072494 c -0.54046,0.738 -1.26279,3.081 -1.60513,5.2068 -0.85801,5.32779 -3.1324,9.55322 -4.20659,7.81509 -0.21789,-0.3527 0.0841,-1.65425 0.67238,-2.89281 1.05808,-2.22977 1.0518,-2.2674 -0.64502,-3.83999 -1.27449,-1.18107 -1.60139,-1.94156 -1.27573,-2.96764 0.24084,-0.75933 0.39899,-3.26735 0.35167,-5.57469 -0.0628,-3.02724 0.32583,-5.25902 1.39392,-8.01641 1.54264,-3.9827 2.5656,-4.74795 4.47779,-3.34973 1.6314,1.19239 2.27422,11.65658 0.83668,13.61938 z M 157.98428,198.60683 c -0.62594,0.97648 -1.57482,2.12468 -2.10856,2.55041 -0.53368,0.42564 -1.16514,1.63485 -1.4031,2.68689 -1.00737,4.45309 -3.95444,9.13037 -9.28281,14.73205 -0.70225,0.73801 -1.2768,1.55775 -1.2768,1.82107 0,0.26345 -0.71731,1.04299 -1.59402,1.7326 -0.87671,0.68905 -1.59403,1.54792 -1.59403,1.90727 0,0.35913 -1.865,2.473 -4.14446,4.6971 -2.27945,2.22397 -4.14446,4.47094 -4.14446,4.99321 0,1.32893 -1.76989,2.95357 -3.21765,2.95357 -1.0198,0 -1.15485,-0.33125 -0.84521,-2.07225 0.2027,-1.13966 1.00097,-2.65648 1.77405,-3.37067 0.77304,-0.71415 2.06479,-2.66012 2.87051,-4.32454 0.80567,-1.66433 2.19783,-3.51891 3.09358,-4.12125 4.30582,-2.89534 8.19132,-8.08824 13.22352,-17.67295 3.63984,-6.93275 6.55716,-10.2143 8.52528,-9.58961 1.60485,0.50957 1.61461,0.75058 0.12426,3.0771 z M 132.43033,69.312084 c -0.35381,0.2184 -1.1428,0.24715 -1.75342,0.0626 -1.61776,-0.487 -12.69578,-0.55604 -16.41273,-0.10041 -3.75317,0.45813 -17.855253,1.18862 -19.925303,1.03171 -3.605172,-0.27246 -8.311382,-0.14288 -10.207579,0.27976 -1.41011,0.31494 -2.414634,0.1845 -3.125153,-0.40548 -0.575854,-0.4782 -2.653455,-0.92255 -4.616816,-0.98905 -9.323604,-0.31237 -21.204561,-1.39934 -25.120787,-2.29705 -2.664302,-0.61121 -5.669147,-0.856 -7.795083,-0.63631 -3.082113,0.31751 -3.709241,0.16691 -5.748651,-1.38908 -1.259015,-0.96018 -2.126588,-1.90843 -1.927927,-2.10714 0.654053,-0.6539 7.620408,-1.64459 11.518325,-1.63755 2.104109,0.004 6.264508,0.35141 9.245333,0.7719 5.869203,0.82841 8.992571,1.16476 13.272899,1.42873 1.881841,0.11284 2.947662,0.53466 3.369879,1.32343 0.339654,0.63507 1.181332,1.15343 1.870329,1.15343 1.393289,0 1.696039,-0.9903 0.455739,-1.4906 -0.438418,-0.17677 -0.215265,-0.34368 0.495777,-0.37157 1.985767,-0.0751 4.289579,1.80927 3.922679,3.21225 -0.436539,1.66935 1.574505,1.58174 3.129268,-0.13687 1.006369,-1.11207 1.693301,-1.27551 4.083886,-0.97151 1.580717,0.20081 4.021732,0.0751 5.424472,-0.27504 1.40274,-0.35141 8.962183,-0.76563 16.798733,-0.91748 7.83656,-0.15318 14.8146,-0.45812 15.50675,-0.67781 2.10816,-0.66897 6.98431,1.11332 7.62082,2.78503 0.70111,1.84205 0.70023,1.87003 -0.0816,2.35312 z m -2.80942,111.214376 c -1.45999,1.21119 -7.20411,1.62778 -8.42963,0.61126 -0.70351,-0.58367 -3.03669,-0.93134 -6.86562,-1.02419 -3.18998,-0.0751 -6.37382,-0.19094 -7.07519,-0.25359 -0.70137,-0.0626 -1.78944,0.10041 -2.41792,0.37673 -0.62845,0.27117 -2.63697,0.31494 -4.46326,0.1004 -9.570735,-1.13593 -12.961132,-1.19617 -14.829329,-0.26731 -1.372166,0.68278 -2.484731,0.78194 -4.112668,0.369 -2.258666,-0.57358 -18.45631,-1.07942 -44.632642,-1.39431 -7.890411,-0.10041 -14.684905,-0.21969 -15.09887,-0.27761 -0.413927,-0.0626 -0.844334,-0.75058 -0.956416,-1.54007 -0.280142,-1.97241 -3.027011,-2.38574 -3.512662,-0.52841 -0.470924,1.80065 -1.740332,1.66721 -3.042298,-0.32009 -1.150332,-1.75568 -0.871066,-3.85655 0.407662,-3.06615 1.166147,0.72041 25.700696,0.96267 30.993143,0.30507 2.575789,-0.32009 5.481016,-0.3527 6.456054,-0.0751 0.975116,0.27976 13.65253,0.69407 28.172195,0.92126 14.519658,0.22741 28.981691,0.68403 32.137861,1.01416 3.15617,0.32996 7.31657,0.73174 9.24534,0.89114 1.92877,0.16048 4.44953,0.49202 5.60172,0.73676 2.4704,0.52592 3.74386,2.32399 2.4225,3.42062 z M 30.259158,177.5986 c -0.438418,0.17678 -0.07908,0.32138 0.797012,0.32138 0.876712,0 1.235305,-0.14417 0.797011,-0.32138 -0.438418,-0.17678 -1.155729,-0.17678 -1.594023,0 z M 28.82454,78.553934 c -0.472688,1.22749 -0.881234,3.04809 -0.907841,4.0459 -0.02617,0.99785 -0.583766,2.57607 -1.238068,3.50685 -0.654178,0.93131 -1.399023,3.12142 -1.655085,4.86792 -0.256071,1.74641 -1.010634,3.94091 -1.676812,4.87633 -0.835543,1.17356 -1.094604,2.28438 -0.835165,3.58143 0.260833,1.303696 -0.102935,2.838876 -1.186232,5.006466 -1.396753,2.79494 -1.474321,3.32888 -0.731994,5.03912 0.910351,2.09723 0.583011,4.17776 -0.78308,4.97549 -0.647776,0.37801 -0.70752,0.82966 -0.228438,1.72431 0.464776,0.86858 0.378184,1.98863 -0.305372,3.95104 -0.524644,1.50643 -0.958171,3.49282 -0.963316,4.41434 -0.0051,0.92126 -0.448711,2.04007 -0.98591,2.48579 -0.752577,0.62503 -0.946372,1.99579 -0.844708,5.97596 0.07281,2.84098 -0.06277,6.45665 -0.299493,8.03473 -0.237234,1.57809 -0.71166,4.84634 -1.054313,7.26275 -0.342529,2.41649 -1.108158,6.14651 -1.70121,8.28892 -0.593052,2.14249 -1.203803,5.47149 -1.357093,7.39777 -0.200077,2.51338 -0.678777,3.90233 -1.695212,4.91885 -1.302326,1.30232 -1.52804,1.33836 -2.80125,0.44684 -1.550519,-1.08569 -1.850497,-3.93688 -0.650285,-6.17964 0.404015,-0.75435 0.827763,-4.68119 0.941605,-8.72524 0.114219,-4.04393 0.515985,-10.07837 0.893655,-13.40986 0.37767,-3.33149 0.663841,-6.96664 0.635977,-8.07807 -0.02746,-1.11078 0.530673,-4.11833 1.24108,-6.68208 0.710408,-2.56376 1.291724,-5.39898 1.291724,-6.30042 0,-1.81867 -1.326693,-5.06873 -2.072233,-5.07649 -0.263065,-0.003 -0.478206,-1.16983 -0.478206,-2.59302 0,-1.5266 -0.256028,-2.4298 -0.62443,-2.20213 -0.343387,0.21196 -1.173678,0.088 -1.844949,-0.26731 C 4.579822,108.59415 3.242161,94.192824 5.212524,91.587794 6.690762,89.633284 6.358338,88.326964 4.013995,86.878034 1.690298,85.441884 0.32885142,82.665054 0.89224402,80.510594 1.307819,78.921474 3.090716,78.803354 5.255247,80.221824 c 1.28969,0.84472 1.575234,1.55989 1.591878,3.98506 0.01116,1.62541 0.441559,3.51226 0.956412,4.19303 0.514857,0.68029 0.936082,2.4854 0.936082,4.01041 0,1.52501 0.573847,3.89757 1.275218,5.27245 0.887005,1.73873 1.275218,3.757866 1.275218,6.633256 0,3.48579 0.211361,4.28181 1.348417,5.07817 1.40578,0.98528 3.114846,0.75813 3.114846,-0.41191 0,-0.37287 0.438547,-1.16348 0.974489,-1.75543 0.765381,-0.84596 0.830776,-1.45494 0.304599,-2.83874 -0.528412,-1.38981 -0.469294,-1.91371 0.279627,-2.48026 0.522263,-0.3956 1.074274,-1.72244 1.226647,-2.949836 0.319702,-2.57491 2.011545,-7.87924 3.253853,-10.20172 0.468916,-0.87737 1.049671,-3.02866 1.290557,-4.78207 0.85349,-6.21331 2.956346,-12.43341 4.203361,-12.43341 0.579622,0 2.528261,3.40396 2.445647,4.2721 -0.02617,0.27976 -0.435282,1.5142 -0.907965,2.74161 z M 14.478333,114.26006 c -0.350682,0 -0.637611,0.30378 -0.637611,0.67523 0,0.37158 0.286921,0.49828 0.637611,0.28104 0.350681,-0.21711 0.637606,-0.52089 0.637606,-0.67527 0,-0.15447 -0.286921,-0.28105 -0.637606,-0.28105 z m 9.723539,-50.852226 c -0.613764,0.13816 -2.406975,-0.12572 -3.985058,-0.58367 -3.495717,-1.01665 -9.182285,-1.09697 -10.941248,-0.15576 -0.711283,0.38016 -1.853561,1.95876 -2.538348,3.50686 -0.747184,1.68905 -1.679409,2.83085 -2.331063,2.85518 -0.796386,0.0257 -0.703504,0.19437 0.348664,0.61752 1.24033,0.49828 1.434623,1.04428 1.434623,4.03161 0,3.40671 -0.02875,3.45953 -2.072229,3.77786 -1.13979,0.17807 -2.303351,0.11285 -2.585845,-0.15446 -0.97913138,-0.90998 -1.67840568,-8.33964 -0.93783738,-9.96492 0.3848224,-0.84472 0.94059838,-1.53578 1.23505338,-1.53578 0.294332,0 0.535316,-1.52965 0.535316,-3.39916 0,-4.69333 0.843202,-5.07602 10.244344,-4.64978 4.009459,0.18193 7.805733,0.34498 8.436174,0.36385 1.296015,0.0386 4.273412,2.98107 4.273412,4.22431 0,0.44933 -0.502178,0.92877 -1.115817,1.06685 z"/>
</svg>
