<?xml version="1.0" encoding="utf-8"?>
<svg version="1.1" viewBox="0 0 484 408" xmlns="http://www.w3.org/2000/svg">
    <title>Two lines crossed parallel, like a letter X.</title>
    <path d="m 1.641646,399.38245 c 0.7814416,-0.30044 1.2070476,-0.89092 0.9456726,-1.31314 -0.261195,-0.42223 1.246407,-1.72103 3.350485,-2.88604 4.3620634,-2.41429 7.1571104,-4.96827 8.7474924,-7.99316 0.652274,-1.23977 1.766473,-1.98043 2.737047,-1.81761 0.900413,0.14301 2.878848,-0.95177 4.396683,-2.45184 1.517802,-1.49922 3.197025,-3.13543 3.731526,-3.63531 0.53456,-0.49912 2.216105,-2.40012 3.736893,-4.22278 1.520844,-1.82266 4.293512,-3.94423 6.1616,-4.71438 1.868071,-0.7693 5.032374,-3.34102 7.031772,-5.71305 1.999403,-2.37189 4.607894,-5.15808 5.796643,-6.19141 1.1888,-1.03405 5.793668,-5.45725 10.233181,-9.83101 5.38121,-5.30139 8.761035,-7.95216 10.139433,-7.95216 1.299899,0 3.743013,-1.73894 6.579978,-4.68456 14.523038,-15.07761 26.647548,-26.56829 28.850718,-27.34221 1.39006,-0.48838 3.13847,-2.07023 3.88592,-3.5156 0.74781,-1.4455 1.89492,-2.62803 2.54988,-2.62803 1.42764,0 10.85485,-7.45916 17.30174,-13.68902 5.71053,-5.5184 5.35165,-5.14056 8.76026,-9.2222 1.54929,-1.85448 5.04073,-4.4602 7.76003,-5.7907 4.67828,-2.28885 10.44516,-7.99812 13.00685,-12.8766 0.59038,-1.12529 1.84287,-2.04485 2.783,-2.04485 0.94102,0 3.06977,-1.73711 4.73247,-3.86246 1.66379,-2.12429 3.3222,-3.99507 3.68734,-4.1573 0.36494,-0.16083 2.20854,-1.72103 4.09649,-3.46319 1.88776,-1.74251 4.51959,-3.57947 5.84811,-4.08181 2.11676,-0.79969 3.66837,-3.45352 3.91919,-6.7013 0.0357,-0.49913 1.49204,-2.39549 3.22935,-4.21277 1.73714,-1.8171 3.89611,-4.37592 4.79671,-5.68602 0.89987,-1.30956 3.96785,-4.09255 6.81614,-6.18301 2.84829,-2.09029 5.77065,-4.64375 6.4943,-5.67404 0.72276,-1.03047 2.66617,-3.12934 4.31689,-4.66432 1.65126,-1.53497 3.00126,-3.27318 3.00126,-3.86248 0,-0.58859 1.03226,-1.07162 2.29458,-1.07162 1.61191,0 2.55167,-0.67625 3.15833,-2.27205 0.47588,-1.25052 1.18612,-2.27205 1.5797,-2.27205 0.39359,0 1.11992,-0.73528 1.61369,-1.63337 2.79981,-5.09547 4.75788,-8.00387 6.57713,-9.76927 1.12529,-1.0913 2.04485,-2.40157 2.04485,-2.91162 0,-0.50987 0.9929,-1.57791 2.20585,-2.37259 1.21296,-0.79432 2.33806,-2.34486 2.49925,-3.44403 0.161,-1.09846 1.35429,-2.64291 2.649,-3.43044 7.5856,-4.611 17.18402,-13.92318 17.18402,-16.67146 0,-2.47403 3.67034,-6.04187 6.82419,-6.63349 2.12821,-0.39893 4.09882,-1.77292 6.24223,-4.35071 8.23842,-9.90845 24.41916,-25.12455 26.71732,-25.12455 0.49377,0 1.94341,-1.37218 3.22202,-3.04759 1.27914,-1.67631 3.47409,-3.52794 4.87918,-4.11492 1.5135,-0.63152 3.25368,-2.52072 4.26966,-4.63283 1.62263,-3.37247 1.63337,-3.73886 0.20038,-6.75853 -0.83369,-1.75682 -2.3166,-3.75425 -3.29608,-4.44034 -1.97633,-1.384708 -5.68532,-6.223808 -7.45197,-9.723298 -0.63152,-1.25052 -2.07096,-3.65818 -3.20019,-5.35256 -2.58995,-3.88556 -2.5921,-5.32303 -0.008,-5.82073 2.03303,-0.3918 2.03339,-0.39359 0.0537,-0.51702 -1.09488,-0.0716 -2.23537,-0.91777 -2.54577,-1.89511 -0.30952,-0.97322 -1.09845,-1.56539 -1.75323,-1.31493 -1.22727,0.47051 -6.89576,-7.42333 -6.89576,-9.60289 0,-0.64225 -1.63516,-3.61882 -3.63528,-6.61291 -1.9994,-2.9941 -3.63528,-5.782812 -3.63528,-6.197146 0,-1.136027 -3.86534,-7.54517 -5.17615,-8.582261 -2.18671,-1.729975 -5.66706,-7.09094 -5.14843,-7.930165 0.28623,-0.463355 -0.3399,-1.645891 -1.39364,-2.626272 -1.05194,-0.98038 -1.91424,-2.330908 -1.91424,-2.999999 0,-0.669092 -0.65657,-1.760389 -1.45805,-2.426442 -0.80148,-0.66551 -1.79975,-2.109067 -2.21749,-3.207879 -0.44546,-1.170018 -1.85824,-2.239308 -3.41039,-2.580298 -1.48489,-0.325602 -3.17568,-1.563597 -3.84334,-2.810719 -0.65657,-1.225476 -1.53319,-2.228398 -1.94788,-2.228398 -0.41506,0 -0.75496,-0.828311 -0.75496,-1.840179 0,-1.107401 -0.86946,-2.170966 -2.18368,-2.67028 -2.7481,-1.044784 -2.95777,-1.406168 -3.70487,-6.4000237 -0.57606,-3.847988 -0.44009,-4.221894 2.25488,-6.214499 2.82235,-2.08670397 4.9917,-2.04573697 2.8914,0.05368 -0.59216,0.592166 -1.06983,1.504562 -1.06088,2.029638 0.008,0.52418 0.36315,0.404319 0.78895,-0.268358 1.30598,-2.061659 6.16888,1.157495 8.39531,5.557395 1.06983,2.1140787 2.50516,4.1707297 3.18981,4.5705727 0.6852,0.39893 1.24516,1.424058 1.24516,2.277058 0,0.85336 1.43121,2.743812 3.18087,4.202573 1.74965,1.458049 3.18086,3.32542 3.18086,4.148189 0,0.822948 1.43122,3.168343 3.18087,5.212116 1.74965,2.043946 3.18087,3.93744 3.18087,4.207763 0,0.479454 3.95014,6.728839 7.38129,11.679042 0.93923,1.354283 1.70672,3.072631 1.70672,3.818653 0,0.746017 1.43121,2.746493 3.18087,4.445521 1.74966,1.699562 3.18087,3.947818 3.18087,4.997068 0,1.05016 0.53133,2.23484 1.17896,2.63469 1.28988,0.79432 6.09088,11.42625 6.09088,13.48917 0,0.70487 1.02331,1.95235 2.27205,2.771 1.25052,0.81937 2.27204,2.02856 2.27204,2.68835 0,1.58507 1.42585,4.77005 3.63886,8.13394 2.07007,3.14598 2.12946,3.28158 3.65442,8.35916 0.62973,2.09834 1.7264,4.037998 2.43681,4.310468 0.71024,0.27192 1.06447,0.8623 0.78717,1.31134 -0.70487,1.13961 3.03309,9.33741 5.06953,11.11765 2.22822,1.9477 2.16954,4.43748 -0.10732,4.43748 -2.27008,0 -8.20925,5.15916 -8.21676,7.13745 -0.003,0.82295 -1.22727,2.19118 -2.71895,3.04025 -1.49203,0.84978 -3.42811,3.04294 -4.30186,4.87506 -0.87304,1.83231 -2.92182,4.74518 -4.55161,6.47319 -1.62979,1.72819 -2.96297,3.51363 -2.96297,3.9684 0,0.45441 -0.94996,1.06446 -2.1105,1.35607 -1.35249,0.3399 -2.52251,1.66915 -3.25761,3.70272 -0.67983,1.87829 -2.69211,4.29167 -4.93303,5.91484 -2.08206,1.50814 -4.09541,3.29519 -4.47415,3.97144 -0.37928,0.67624 -2.11694,1.70135 -3.86248,2.27705 -2.06256,0.67983 -3.17389,1.62085 -3.17389,2.68335 0,0.89987 -0.59753,2.13196 -1.32745,2.73808 -0.72992,0.60648 -1.60296,1.98545 -1.93822,3.06494 -0.74781,2.40551 -8.2622,9.68769 -9.99647,9.68769 -0.69235,0 -3.06673,2.55615 -5.27795,5.68012 -2.21123,3.12416 -4.66969,6.39591 -5.4633,7.27056 -0.79432,0.87483 -1.44373,1.97185 -1.44373,2.43807 0,0.46693 -0.84799,1.11634 -1.8833,1.44552 -1.08235,0.34351 -1.68346,1.11813 -1.4151,1.82015 0.25762,0.67267 0.10731,1.3507 -0.32204,1.50814 -1.40259,0.50629 -7.44534,5.65811 -9.90077,8.43913 -2.75579,3.12165 -9.20948,9.33884 -15.1211,14.56723 -2.2606,1.99941 -5.01568,5.06667 -6.12237,6.81615 -2.9889,4.72514 -7.98133,9.99699 -9.46693,9.99699 -0.71739,0 -1.71924,1.1897 -2.22607,2.64293 -0.54923,1.57433 -1.77649,2.8576 -3.03578,3.1737 -1.16286,0.29153 -4.10453,2.70802 -6.53669,5.3692 -2.81842,3.08391 -6.31451,5.70481 -9.64029,7.22746 -2.87011,1.31488 -5.21837,2.90084 -5.21837,3.5265 0,1.52778 -4.44767,7.96519 -7.27056,10.52495 -1.25052,1.13241 -3.19214,2.31121 -4.31689,2.61819 -1.12529,0.30765 -2.04485,1.03944 -2.04485,1.62623 0,0.58679 -1.12528,1.75145 -2.49925,2.58479 -3.73689,2.26682 -8.40658,6.96873 -8.40658,8.46452 0,0.72453 -0.78716,1.31671 -1.75144,1.31671 -0.96249,0 -2.9059,1.35787 -4.3169,3.01593 -1.41153,1.6584 -3.99683,3.98429 -5.74631,5.16776 -1.74965,1.18253 -4.56789,3.54615 -6.26316,5.25076 -1.69598,1.7049 -4.84161,3.85334 -6.992,4.77502 -2.45292,1.05196 -4.44016,2.70196 -5.33359,4.42978 -0.78359,1.5153 -2.34003,3.23205 -3.45942,3.8165 -1.11992,0.58501 -3.8759,3.00358 -6.12523,5.37565 -4.38254,4.62175 -9.211988,8.47992 -17.393152,13.89508 -2.994593,1.98226 -5.584587,4.50352 -6.232228,6.06712 -1.318323,3.18266 -3.116211,4.81602 -5.741987,5.21673 -2.888646,0.44013 -6.076475,2.81576 -6.076475,4.52695 0,2.64382 -3.937512,7.50044 -8.633781,10.64911 -2.499256,1.6763 -5.32318,3.90935 -6.27538,4.96377 -0.952293,1.05374 -2.651966,1.91712 -3.777236,1.91712 -1.415648,0 -3.057873,1.40795 -5.330619,4.57202 -1.806584,2.51465 -4.298752,5.03409 -5.538181,5.5989 -1.239429,0.56531 -2.253477,1.55642 -2.253477,2.20368 0,1.0806 -2.532728,5.40319 -5.795497,9.89148 -1.143178,1.57255 -1.581666,1.66022 -3.252801,0.6512 -1.062318,-0.64225 -2.33048,-0.91956 -2.818145,-0.61899 -1.319758,0.81576 -0.09662,2.24 1.923062,2.24 2.746677,0 2.076995,1.77828 -1.189695,3.15868 -3.244768,1.37218 -9.366024,7.26379 -11.027145,10.61496 -1.449099,2.92359 -5.754114,3.2104 -10.7176254,0.71383 -6.54051147,-3.28929 -8.4986411,-5.5812 -5.6894054,-6.65908 z M 272.86659,48.020004 c 0.49913,0 0.90882,-0.432941 0.90882,-0.96249 0,-0.529549 -0.40971,-0.710241 -0.90882,-0.400755 -0.49914,0.30952 -0.90882,0.742445 -0.90882,0.96249 0,0.220068 0.4097,0.400755 0.90882,0.400755 z m 43.22437,72.667086 c 3.84406,-2.64488 4.27789,-2.75078 5.76242,-1.40795 0.88199,0.79969 2.06524,2.95151 2.62735,4.78311 0.90882,2.96153 0.814,3.51183 -0.8641,4.9663 -1.51887,1.31851 -1.76933,2.25953 -1.28451,4.84501 0.7979,4.2532 -1.05194,4.2677 -3.79718,0.0356 -2.51983,-3.89021 -2.57028,-5.00012 -0.2272,-5.00012 1.00901,0 1.81764,-0.60647 1.81764,-1.36323 0,-0.75675 -0.80685,-1.36322 -1.81764,-1.36322 -1.00006,0 -1.81764,0.40966 -1.81764,0.90881 0,1.54035 -1.2863,0.95713 -2.95992,-1.34355 -1.59043,-2.1876 -1.58149,-2.20603 2.56026,-5.05557 z m 5.92039,-22.689538 c 1.2863,-1.24516 2.61804,-3.01986 2.95813,-3.94209 0.33991,-0.92314 1.43479,-1.8901 2.43164,-2.15094 0.99648,-0.26118 1.81298,-0.85514 1.81298,-1.32029 0,-1.3668 4.67613,-5.30353 6.29859,-5.30353 0.81936,0 2.21193,-1.22369 3.09552,-2.71984 0.88378,-1.49561 2.40337,-3.14616 3.37695,-3.6673 0.97322,-0.52061 1.76934,-1.47952 1.76934,-2.12839 0,-1.30777 3.31826,-4.46037 8.17937,-7.7688 1.74966,-1.19148 7.29954,-6.29554 12.33346,-11.34396 5.03393,-5.048417 10.89188,-10.610285 13.01759,-12.359763 5.40819,-4.450707 10.90315,-10.17126 11.48762,-11.95938 0.52776,-1.613691 10.0888,-9.852281 11.43322,-9.852281 0.44191,0 0.80507,-0.511658 0.80329,-1.136028 -8.9e-4,-1.432999 10.01543,-10.678623 11.56956,-10.678623 0.63508,0 1.15389,-0.368547 1.15389,-0.81758 0,-1.1074007 6.89915,-4.6358757 9.0626,-4.6358757 2.51376,0 2.92758,1.28988 0.88557,2.761525 -2.10332,1.5152927 -2.39549,5.4178517 -0.4061,5.4178517 1.98761,0 1.66735,1.597587 -0.45439,2.272047 -1.00006,0.316648 -1.81765,1.130655 -1.81765,1.809052 0,1.763966 -5.60174,7.247474 -7.5366,7.37861 -2.09331,0.143133 -7.91334,3.263342 -7.91334,4.244257 0,0.411491 -1.12529,1.152128 -2.49924,1.645895 -1.86862,0.670878 -3.15957,2.37241 -5.11624,6.745121 -1.52244,3.404493 -3.33827,6.077282 -4.34317,6.39626 -0.94999,0.300566 -3.4553,2.301747 -5.56849,4.445343 -2.11337,2.143601 -5.46473,4.998329 -7.44767,6.344027 -1.98277,1.345342 -5.57761,4.263582 -7.98849,6.484282 -2.41087,2.22088 -4.97775,4.0378 -5.70409,4.0378 -0.72634,0 -1.32029,0.7496 -1.32029,1.66379 0,0.91597 -1.11277,2.24432 -2.47171,2.95366 -3.55047,1.85253 -5.74023,4.2371 -5.19511,5.65758 0.26118,0.67983 -0.63868,2.00727 -2.01747,2.97424 -1.3686,0.9607 -4.0269,3.24634 -5.9068,5.08026 -1.88007,1.83374 -4.66217,4.06911 -6.18265,4.9672 -1.52066,0.89808 -2.76439,2.15827 -2.76439,2.80035 0,0.64225 -0.82652,1.16643 -1.83785,1.16643 -1.01079,0 -3.61989,1.64232 -5.79766,3.64995 -3.80058,3.503258 -3.98074,3.568728 -4.48774,1.62979 -0.63689,-2.43467 -1.33103,-1.87793 -2.72896,2.189588 -1.09488,3.18283 -3.07389,4.36322 -2.59712,1.54928 0.18425,-1.08951 -0.40075,-1.70672 -1.81764,-1.91228 l -2.09028,-0.30235 z m 2.41678,49.801158 c 1.19685,-1.92981 1.32566,-3.01145 0.59574,-4.9985 -0.70308,-1.91622 -0.59753,-3.25762 0.43473,-5.4896 0.75139,-1.62442 1.64232,-2.95366 1.98008,-2.95366 0.33812,0 0.41506,-1.12529 0.161,-2.49925 l -0.44546,-2.49925 3.29715,3.13202 c 1.81353,1.72282 3.29715,3.86964 3.29715,4.77131 0,0.90166 0.6029,1.63873 1.33998,1.63873 0.73707,0 1.9722,1.22369 2.74506,2.71751 0.77286,1.49383 3.00859,3.53545 4.96791,4.53516 3.36747,1.71745 4.44982,3.06315 7.69205,9.56049 0.74781,1.49919 2.40283,3.69342 3.67678,4.87506 1.27378,1.18254 2.56115,3.12452 2.86046,4.31689 0.31843,1.272 1.21474,2.16829 2.16596,2.16829 1.68883,0 2.7252,1.71388 2.7252,4.51064 0,0.89988 1.42764,2.72503 3.17461,4.05677 3.15707,2.40801 3.16602,2.43485 1.59222,4.83553 -1.3185,2.01264 -1.3507,2.32536 -0.19142,1.88043 2.76045,-1.0591 8.36346,5.7159 9.42793,11.4005 0.44189,2.36472 1.23084,3.65871 2.41463,3.96839 2.02713,0.52955 2.07222,0.68877 0.84978,2.9728 -0.70666,1.32029 -0.55638,1.81961 0.68162,2.25022 0.87483,0.30414 3.0211,2.57654 4.77058,5.04968 1.74966,2.47295 3.65961,4.5008 4.2448,4.50617 0.58501,0.006 1.34715,1.29882 1.6924,2.87476 0.34542,1.57612 1.535,3.72294 2.6406,4.77131 3.24418,3.07478 14.14217,25.28395 14.14217,28.8203 0,1.06087 1.17715,3.26854 2.6148,4.90657 1.43837,1.63693 3.34671,4.96361 4.24123,7.39041 0.89449,2.42681 2.28779,5.23035 3.09626,6.23007 0.80864,1.00002 2.44484,3.65797 3.63671,5.90732 1.19149,2.2493 3.10967,5.23285 4.26177,6.62989 1.15211,1.39721 2.60122,4.23067 3.22022,6.29682 0.61899,2.06594 2.37495,5.01262 3.90184,6.54795 1.52782,1.535 3.69467,4.0886 4.81729,5.67388 1.12172,1.58507 3.23828,3.41253 4.7019,4.06034 2.73056,1.20935 3.64422,3.03256 3.66604,7.31742 0.008,1.34536 0.44726,2.71409 0.9768,3.04203 1.23083,0.76035 2.86724,4.79582 3.04903,7.51619 0.14301,2.16239 1.77828,3.69234 4.16536,3.90023 0.74957,0.0717 1.88687,0.17907 2.52679,0.24145 1.16645,0.12518 2.91608,2.69211 4.72444,6.93848 2.21892,5.21053 15.37712,31.88296 18.04597,36.57999 1.06444,1.87456 1.69417,3.40807 1.39721,3.40807 -0.29704,0 0.4061,0.76569 1.56181,1.70138 1.98439,1.60654 2.03446,1.90634 0.89631,5.3554 -1.46701,4.44713 -1.58867,4.62175 -5.3658,7.72548 -4.54464,3.73495 -6.04204,3.3002 -7.87684,-2.28669 -0.86232,-2.62413 -1.67813,-5.58926 -1.81515,-6.58894 -0.3938,-2.88336 -1.40616,-4.81763 -2.80482,-5.35401 -1.80725,-0.6941 -1.65483,-4.18861 0.18247,-4.18861 1.20761,0 1.27021,-0.24697 0.34373,-1.36322 -0.62261,-0.74961 -1.70673,-1.36322 -2.41179,-1.36322 -0.70488,0 -1.54391,-0.71562 -1.86667,-1.59046 -0.32208,-0.87479 -1.53673,-2.85578 -2.698,-4.40257 -1.16106,-1.54752 -2.11173,-3.26299 -2.11173,-3.81383 0,-0.55102 -1.43124,-3.44385 -3.18087,-6.4288 -1.74968,-2.98516 -3.18088,-5.77852 -3.18088,-6.20771 0,-0.42935 -1.63518,-2.95762 -3.63526,-5.61858 -1.99941,-2.6608 -3.63531,-5.22984 -3.63531,-5.70893 0,-0.47943 -1.20223,-2.38047 -2.6717,-4.22567 -1.4688,-1.84498 -4.55233,-7.34207 -6.85051,-12.21572 -2.29832,-4.87347 -4.49003,-8.86099 -4.87059,-8.86099 -0.38107,0 -1.20757,-1.42407 -1.83586,-3.16351 -0.62973,-1.74072 -2.3472,-4.36664 -3.81795,-5.83738 -1.47058,-1.47058 -2.67386,-3.06423 -2.67386,-3.54136 0,-0.47765 -0.61365,-1.37752 -1.36322,-1.99885 -0.74961,-0.62261 -1.38291,-1.79691 -1.40616,-2.61055 -0.017,-0.81399 -1.64771,-2.70607 -3.61095,-4.20559 -2.8773,-2.19817 -3.92171,-3.87108 -5.3894,-8.6338 -1.00189,-3.24902 -2.8526,-7.41922 -4.11406,-9.26709 -1.26125,-1.84787 -2.29347,-3.62525 -2.29347,-3.94945 0,-0.32378 -0.79078,-1.69956 -1.75685,-3.05722 -0.96607,-1.35788 -2.02728,-3.54425 -2.35755,-4.85968 -0.37937,-1.51175 -1.32206,-2.49462 -2.55972,-2.67102 -1.27559,-0.18078 -1.86772,-0.82651 -1.69777,-1.84749 0.33099,-1.97975 -1.76576,-6.08944 -4.25858,-8.34452 -1.05016,-0.95177 -1.91067,-2.22999 -1.91067,-2.84203 0,-0.61182 -1.84036,-2.6209 -4.08969,-4.46412 -2.88067,-2.36043 -4.08968,-4.02886 -4.08968,-5.64398 0,-2.17741 -3.04258,-5.66868 -4.99851,-5.73541 -1.60475,-0.0537 -7.86236,-7.10775 -6.85712,-7.72907 0.5224,-0.32204 0.94997,-1.15571 0.94997,-1.85056 0,-1.47952 -5.42876,-6.79826 -6.94477,-6.80434 -1.10919,-0.005 -2.48781,-4.16483 -1.76576,-5.33216 0.23793,-0.38463 -0.77106,-1.41153 -2.24414,-2.28171 -1.47236,-0.86946 -2.67708,-2.18045 -2.67708,-2.91269 0,-0.7317 -0.99469,-1.78365 -2.21069,-2.3386 -2.35434,-1.07341 -4.25266,-4.66199 -4.47182,-8.4556 -0.0715,-1.37396 -0.68698,-2.32411 -1.4974,-2.34235 -0.7496,-0.017 -2.33162,-0.83726 -3.51506,-1.82355 -1.62979,-1.35786 -2.13984,-2.676 -2.10155,-5.43985 0.0356,-2.20246 -0.49198,-4.0904 -1.32029,-4.76611 -4.8765,-3.98074 -7.40599,-7.57469 -9.42078,-13.38452 -1.5135,-4.36287 -2.66652,-6.37014 -3.6113,-6.28337 -4.08217,0.37567 -4.38667,-0.19499 -2.08456,-3.90757 z" />
</svg>
